/* XPM */
static char *a1680496822[] = {
/* columns rows colors chars-per-pixel */
"70 70 81 1 ",
"  c None",
". c #FFFFFF",
"X c #FFFFFF",
"o c #FFFFFF",
"O c #FFFFFF",
"+ c #FFFFFF",
"@ c #FFFFFF",
"# c #FFFFFF",
"$ c #FFFFFF",
"% c #FFFFFF",
"& c #FFFFFF",
"* c #FFFFFF",
"= c #FFFFFF",
"- c #FFFFFF",
"; c #FFFFFF",
": c #FFFFFF",
"> c #FFFFFF",
", c #FFFFFF",
"< c #FFFFFF",
"1 c #FFFFFF",
"2 c #FFFFFF",
"3 c #FFFFFF",
"4 c #FFFFFF",
"5 c #FFFFFF",
"6 c #FFFFFF",
"7 c #FFFFFF",
"8 c #FFFFFF",
"9 c #FFFFFF",
"0 c #FFFFFF",
"q c #FFFFFF",
"w c #FFFFFF",
"e c #FFFFFF",
"r c #FFFFFF",
"t c #FFFFFF",
"y c #FFFFFF",
"u c #FFFFFF",
"i c #FFFFFF",
"p c #FFFFFF",
"a c #FFFFFF",
"s c #FFFFFF",
"d c #FFFFFF",
"f c #FFFFFF",
"g c #FFFFFF",
"h c #FFFFFF",
"j c #FFFFFF",
"k c #FFFFFF",
"l c #FFFFFF",
"z c #FFFFFF",
"x c #FFFFFF",
"c c #FFFFFF",
"v c #FFFFFF",
"b c #FFFFFF",
"n c #FFFFFF",
"m c #FFFFFF",
"M c #FFFFFF",
"N c #FFFFFF",
"B c #FFFFFF",
"V c #FFFFFF",
"C c #FFFFFF",
"Z c #FFFFFF",
"A c #FFFFFF",
"S c #FFFFFF",
"D c #FFFFFF",
"F c #FFFFFF",
"G c #FFFFFF",
"H c #FFFFFF",
"J c #FFFFFF",
"K c #FFFFFF",
"L c #FFFFFF",
"P c #FFFFFF",
"I c #FFFFFF",
"U c #FFFFFF",
"Y c #FFFFFF",
"T c #FFFFFF",
"R c #FFFFFF",
"E c #FFFFFF",
"W c #FFFFFF",
"Q c #FFFFFF",
"! c #FFFFFF",
"~ c #FFFFFF",
"^ c #FFFFFF",
/* pixels */
"                                                                      ",
"                                                                      ",
"                                                                      ",
"                                                                      ",
"                                                                      ",
"                                                                      ",
"                                                                      ",
"                                                                      ",
"                                                                      ",
"                                                                      ",
"                                                                      ",
"                              ddiidzz9zt!                             ",
"                             z=o%%%%o=%oi                             ",
"                             9o-%%%%9o%%9                             ",
"                            C99%%%%%o#-==d                            ",
"                            9oo%%%%%-o-%@9                            ",
"                            9@%%%%%%%%%%o9                            ",
"                           d==%%%%%%%%%%o99                           ",
"                           @@%%%%%%%%%%%#-9                           ",
"                           9-%%%%%%%%%%%o-9z                          ",
"                          9=%%%%%%%%-o#%9o#9                          ",
"                          9@%%%%%%%%o9--o-o9                          ",
"                         z99%%%%oo99oo%%---99                         ",
"                         9o%%%%%=9RR9=%%%#oo9                         ",
"                         9o@%%%%@9  9o-%%%%%9                         ",
"                        h99o%%%%#9  i%%%%%%%=9                        ",
"                        9oo@%%o99I  B9=%%%%%o9                        ",
"                       G99o-%-#o9    9o%%%%%#9d                       ",
"                       9o@%%%%@#d    9@=%%%%9o9                       ",
"                       9o-%%%%o9     I9#%-%%o=-                       ",
"                      C9#%%%%%o9      9o#-9oo999                      ",
"                      9%#-%%%=9z      99o-o-#o%-                      ",
"                      9-%%%%%@9       z99o---%-9                      ",
"                     z@#%%%%%@9        9o-o#%%#oi                     ",
"                     9oo%%#-=9C        9o#o-%%%o9                     ",
"                    I-9%%%o@o9          99#o%%%99z                    ",
"                    ho@%%%%%o9          9@o9%%%%@9                    ",
"                    9o-%%%%%9I          9==o%%%%o9                    ",
"                   G9%%%%%%%9            9%%%%%%@99                   ",
"                   i%%%%%%%%h            9%%%%%%@-9                   ",
"                   9%%%%%%%%d            9=@%%%%-#9                   ",
"                  x%%%%%%%%%%999999t999t9@%%%%%%%o=9                  ",
"                  i%%%%%%%%%%%%o@o@@o@oo-%%%%%%%%%o9                  ",
"                 G%%%%%%%%%%%%%%-=o=--#9%%%%%%%%%%99z                 ",
"                 i%%%%%%-%%%--o9o9o#-%@o%%%%%%%%%%%%9                 ",
"                 9o%%%%%-#%%%#o@-o@@%%o@%%@@%%%%%%9o9                 ",
"                C==%%%%%-oo@ooooo@@@o@o@o@@o%%%%%-o=9i                ",
"                9o%%%%%%@@99999999=9999999=9%%%%%-#oo9                ",
"               W9@%%%%@-oG                  9o#o%%%%-9                ",
"               z%%%%%%o99                   F99-%%%%@@9               ",
"               9o-%%%%%o9                    9oo%%%%9o9               ",
"              I9=%%%%%==G                    99#%%%%##9z              ",
"              io-%%%o9o9                     z9@%%%%%%o9              ",
"              9o-#%%-o=i                      9o%%%%%%o9              ",
"             G#--o--o9=G                      9@%%%%%%=9I             ",
"             do%o9o#oo9                       z9@-%%%%%o9             ",
"            ~9@o-o9#9oi                        9o%%%%=%=9             ",
"            zoo@@oooo@!                        zo@o%%o%%oG            ",
"            IzFzzzzzzG                         ^zzzzzzzzdI            ",
"                                                                      ",
"                                                                      ",
"                                                                      ",
"                                                                      ",
"                                                                      ",
"                                                                      ",
"                                                                      ",
"                                                                      ",
"                                                                      ",
"                                                                      ",
"                                                                      "
};
