/* XPM */
static char *b1680496823[] = {
/* columns rows colors chars-per-pixel */
"70 70 75 1 ",
"  c None",
". c #FFFFFF",
"X c #FFFFFF",
"o c #FFFFFF",
"O c #FFFFFF",
"+ c #FFFFFF",
"@ c #FFFFFF",
"# c #FFFFFF",
"$ c #FFFFFF",
"% c #FFFFFF",
"& c #FFFFFF",
"* c #FFFFFF",
"= c #FFFFFF",
"- c #FFFFFF",
"; c #FFFFFF",
": c #FFFFFF",
"> c #FFFFFF",
", c #FFFFFF",
"< c #FFFFFF",
"1 c #FFFFFF",
"2 c #FFFFFF",
"3 c #FFFFFF",
"4 c #FFFFFF",
"5 c #FFFFFF",
"6 c #FFFFFF",
"7 c #FFFFFF",
"8 c #FFFFFF",
"9 c #FFFFFF",
"0 c #FFFFFF",
"q c #FFFFFF",
"w c #FFFFFF",
"e c #FFFFFF",
"r c #FFFFFF",
"t c #FFFFFF",
"y c #FFFFFF",
"u c #FFFFFF",
"i c #FFFFFF",
"p c #FFFFFF",
"a c #FFFFFF",
"s c #FFFFFF",
"d c #FFFFFF",
"f c #FFFFFF",
"g c #FFFFFF",
"h c #FFFFFF",
"j c #FFFFFF",
"k c #FFFFFF",
"l c #FFFFFF",
"z c #FFFFFF",
"x c #FFFFFF",
"c c #FFFFFF",
"v c #FFFFFF",
"b c #FFFFFF",
"n c #FFFFFF",
"m c #FFFFFF",
"M c #FFFFFF",
"N c #FFFFFF",
"B c #FFFFFF",
"V c #FFFFFF",
"C c #FFFFFF",
"Z c #FFFFFF",
"A c #FFFFFF",
"S c #FFFFFF",
"D c #FFFFFF",
"F c #FFFFFF",
"G c #FFFFFF",
"H c #FFFFFF",
"J c #FFFFFF",
"K c #FFFFFF",
"L c #FFFFFF",
"P c #FFFFFF",
"I c #FFFFFF",
"U c #FFFFFF",
"Y c #FFFFFF",
"T c #FFFFFF",
"R c #FFFFFF",
/* pixels */
"                                                                      ",
"                                                                      ",
"                                                                      ",
"                                                                      ",
"                                                                      ",
"                                                                      ",
"                                                                      ",
"                                                                      ",
"                                                                      ",
"                                                                      ",
"                                                                      ",
"                M6iiapa6ia6i6i66i66p6i66kkVH                          ",
"                6$$$$$$$X$$$$$**$$*+*+*XX6*666VR                      ",
"                6$$$$$$$=$$$$$X$$$$$$=$$$X*=+XX*k                     ",
"                6$$$$$$$$$$$$$$$$$$$$$$$$$$$$$$*X6P                   ",
"                6$$$$$$$$$$$$$$$$$$$$$$$$$$$$$$$$*6L                  ",
"                6$$$$$$$$$$$$$$$$$$$$$$$$$$$$$$$$$X6                  ",
"                6$$$$$$$$$$$$$$X$$$XXXXX$$$$$$$$$$**M                 ",
"                6$$$$$$$$$6**6$6$*666666$$$$$$$$$$XXi                 ",
"                6$$$$$$$X6              M6X$$$$$$$$$6                 ",
"                6$$$$$$$X6                aXX$$$$$$*6J                ",
"                6$$$$$$$+*                 6X*$$$$$*$M                ",
"                6$$$$$$$X6                 A**$$$$$$6i                ",
"                *$$$$$$$*6                  6$$$$$$$$M                ",
"                6$$$$$$$X6                  6+$$$$$$*A                ",
"                6*$$$$$$X*                  6X$$$$$=6                 ",
"                *$$$$$$$*6                 P*=$$$$$X6                 ",
"                6$$$$$$$X6                 i*X$$$$$+B                 ",
"                6*$$$$$$X*                V6*$$$$$$i                  ",
"                *$$$$$$$X6               k6$$$$$$$6J                  ",
"                6$$$$$$$$*i kkMk    kMAi6$$$$$$$*6B                   ",
"                6*$$$$$$$$66666*666*66*$$*$$$$X**                     ",
"                6$$$$$$$$$$$==$$**====*$$$$$$$$k                      ",
"                6$$$$$$$$$$$$$$$=X$$$$$$$$$$$$*6k                     ",
"                6$$$$$$$$$$$$$$$$$$$$$$$$$$$$$$$66V                   ",
"                6$$$$$$$$$$$X+X*X+XXXXX**$$=$$$$$X=i                  ",
"                *$$$$$$$$X$666666666666*6**X$$$$$$*X6                 ",
"                6$$$$$$$$6k           VMk6**$$$$$$$*Xk                ",
"                6$$$$$$$+6                 6$$$$$$$$6*V               ",
"                *$$$$$$$X6                  6$$$$$$$X$i               ",
"                6*$$$$$$X*                   6$$$$$$X*6               ",
"                6$$$$$$$X6                   k*$$$$$$*6k              ",
"                *$$$$$$$X6                    *$$$$$$$$i              ",
"                6*$$$$$$X6                    iX$$$$$$Xi              ",
"                6$$$$$$$X6                    6$$$$$$$X6              ",
"                *$$$$$$$X6                    6$$$$$$$X=              ",
"                6*$$$$$$X6                   I6$$$$$$$X6              ",
"                6$$$$$$$X6                   k$$$$$$$$$i              ",
"                6$$$$$$$X6                  V6*$$$$$$**k              ",
"                6$$$$$$$X*                 B6=X$$$$$$$6               ",
"                *$$$$$$$$$               B6**$$$$$$$+X6               ",
"                6$$$$$$$$$6i6iiei6i66ii666$*$$$$$$$$6*A               ",
"                6$$$$$$$$$XXXXXXXXXXXXXX*+X$$$$$$$$$$i                ",
"                i$$$$$$$$$$$$$$$$$$$$$$$+*$$$$$$$$$Xi                 ",
"                6$$$$$$$$$$$$$$$$$$$$$$$$$$$$$$$$6Xi                  ",
"                6X$$$$$$$$$$$$$$$$$$$$$$$$$$$$$*X$a                   ",
"                6X*$$$$$$$=O$$=X$$$$$$$$X$$*XX$$kP                    ",
"                6XX=$$$*$$$XXXXX$$$*$$$*X66*66MR                      ",
"                kiaiiaaaaakkkkkkaaaaaai=akkA                          ",
"                                                                      ",
"                                                                      ",
"                                                                      ",
"                                                                      ",
"                                                                      ",
"                                                                      ",
"                                                                      ",
"                                                                      ",
"                                                                      ",
"                                                                      ",
"                                                                      "
};
