/* XPM */
static char *c1680496823[] = {
/* columns rows colors chars-per-pixel */
"70 70 105 2 ",
"   c None",
".  c #FFFFFF",
"X  c #FFFFFF",
"o  c #FFFFFF",
"O  c #FFFFFF",
"+  c #FFFFFF",
"@  c #FFFFFF",
"#  c #FFFFFF",
"$  c #FFFFFF",
"%  c #FFFFFF",
"&  c #FFFFFF",
"*  c #FFFFFF",
"=  c #FFFFFF",
"-  c #FFFFFF",
";  c #FFFFFF",
":  c #FFFFFF",
">  c #FFFFFF",
",  c #FFFFFF",
"<  c #FFFFFF",
"1  c #FFFFFF",
"2  c #FFFFFF",
"3  c #FFFFFF",
"4  c #FFFFFF",
"5  c #FFFFFF",
"6  c #FFFFFF",
"7  c #FFFFFF",
"8  c #FFFFFF",
"9  c #FFFFFF",
"0  c #FFFFFF",
"q  c #FFFFFF",
"w  c #FFFFFF",
"e  c #FFFFFF",
"r  c #FFFFFF",
"t  c #FFFFFF",
"y  c #FFFFFF",
"u  c #FFFFFF",
"i  c #FFFFFF",
"p  c #FFFFFF",
"a  c #FFFFFF",
"s  c #FFFFFF",
"d  c #FFFFFF",
"f  c #FFFFFF",
"g  c #FFFFFF",
"h  c #FFFFFF",
"j  c #FFFFFF",
"k  c #FFFFFF",
"l  c #FFFFFF",
"z  c #FFFFFF",
"x  c #FFFFFF",
"c  c #FFFFFF",
"v  c #FFFFFF",
"b  c #FFFFFF",
"n  c #FFFFFF",
"m  c #FFFFFF",
"M  c #FFFFFF",
"N  c #FFFFFF",
"B  c #FFFFFF",
"V  c #FFFFFF",
"C  c #FFFFFF",
"Z  c #FFFFFF",
"A  c #FFFFFF",
"S  c #FFFFFF",
"D  c #FFFFFF",
"F  c #FFFFFF",
"G  c #FFFFFF",
"H  c #FFFFFF",
"J  c #FFFFFF",
"K  c #FFFFFF",
"L  c #FFFFFF",
"P  c #FFFFFF",
"I  c #FFFFFF",
"U  c #FFFFFF",
"Y  c #FFFFFF",
"T  c #FFFFFF",
"R  c #FFFFFF",
"E  c #FFFFFF",
"W  c #FFFFFF",
"Q  c #FFFFFF",
"!  c #FFFFFF",
"~  c #FFFFFF",
"^  c #FFFFFF",
"/  c #FFFFFF",
"(  c #FFFFFF",
")  c #FFFFFF",
"_  c #FFFFFF",
"`  c #FFFFFF",
"'  c #FFFFFF",
"]  c #FFFFFF",
"[  c #FFFFFF",
"{  c #FFFFFF",
"}  c #FFFFFF",
"|  c #FFFFFF",
" . c #FFFFFF",
".. c #FFFFFF",
"X. c #FFFFFF",
"o. c #FFFFFF",
"O. c #FFFFFF",
"+. c #FFFFFF",
"@. c #FFFFFF",
"#. c #FFFFFF",
"$. c #FFFFFF",
"%. c #FFFFFF",
"&. c #FFFFFF",
"*. c #FFFFFF",
"=. c #FFFFFF",
/* pixels */
"                                                                                                                                            ",
"                                                                                                                                            ",
"                                                                                                                                            ",
"                                                                                                                                            ",
"                                                                                                                                            ",
"                                                                                                                                            ",
"                                                                                                                                            ",
"                                                                                                                                            ",
"                                                                                                                                            ",
"                                                                                                                                            ",
"                                                            U v q q e q : e e p v `                                                         ",
"                                                      U q q q : = : + % = + + = : : q v `                                                   ",
"                                                  U q + + % q : = = = = = = = = : q + + = q /                                               ",
"                                              U q + % : + + + + = = = = = = = = + + = = : + + q X.                                          ",
"                                            f + = = + % q + q + = = = = = = = = % = = = : + q + : v                                         ",
"                                        O.q + : = = = = + + + : = = = = = = = = = = = = + : + + q + p                                       ",
"                                      X.q = = = = = = = = = : + = = = = : : = : = = = = = = = = + : + q                                     ",
"                                    O.q = = = = = = = = = = + + + = = q : : + = = = = = = = = = % + : % p                                   ",
"                                    q + = = = = = = = : = + + q v U ` _ ` ` A e : + = = = = = = = = = : % U                                 ",
"                                  v + = = = = = = = = : + q `                   $.V = + = = = = = = = = : q                                 ",
"                                U = = = = = = = = = : + v                           O.q + = = = = = = = = = v                               ",
"                                q = = = = = = = % : + Q                                 q = = = = = = = : + q                               ",
"                              V = = = = = = = = + + U                                     q = = = = = = + = + U                             ",
"                              e + = = = = = = = + v                                       Q = = = = = = q + % e                             ",
"                            Q = : = = = = = = q :                                           q + = + = = : + % q                             ",
"                            e = = = = = = = = + v                                           Q + + + + + + + + : X.                          ",
"                            q + = = = = + % q :                                               A v v v f f p V p %.                          ",
"                          X., : = = = = + + + q                                                                                             ",
"                          Q + = = = = = = = : U                                                                                             ",
"                          v + = = = = = = : : X.                                                                                            ",
"                          q + = = = = = = + q                                                                                               ",
"                          q + , = = = = = + e                                                                                               ",
"                          q % + = = = = + + v                                                                                               ",
"                          q = + = = = = + + v                                                                                               ",
"                        =.q q + = = = = % + v                                                                                               ",
"                        $.= , + = = = = = + v                                                                                               ",
"                          q + q = = = = + + v                                                                                               ",
"                          q : + = = = = + q q                                                                                               ",
"                          q + = = = = = + + q                                                                                               ",
"                          q + = = = = = + + q                                                                                               ",
"                          q + = = = = = = % q                                                                                               ",
"                          v : = = = = = = : q e                                               A q q q q q q q : V                           ",
"                          v q % = = = = = = + q                                               q + + = = % = = + V                           ",
"                            , + = = = = = % % :                                             ` : : = = = = = % + A                           ",
"                            , + + + + + = = = + v                                           v + = = = = = = % q                             ",
"                            p q % + q + = = : % q                                           q + = = = = = = + q                             ",
"                              q % = + q + : + : + v                                       U + q = = = = = = + p                             ",
"                              q q : + + q + : + + + Q                                   $.: = + = = = = = % q _                             ",
"                                q + + + = = = = = : + _                                 q = = = = = = = + + q                               ",
"                                v , q + = = = = = = : + V                           O.e + = = = = = = = q , Q                               ",
"                                  q + = = = = = + + + : + q Q                     v = = + = = = = = = = + q                                 ",
"                                    q = = = = = + q + : = + + q f U U U U ` v v q + = = = = = = = = = = q                                   ",
"                                    V q q + : + q + + + q + + + + = : : : : + + + + + + = = = = = = , : Q                                   ",
"                                      A q : + : + + + q + + + q % % : : : = : + + q + q = = = = + q = V                                     ",
"                                        A q + : q + q + q + q + + + + : q + q + q + + + = = = = + = v                                       ",
"                                            q = + + + + + + + + q + q + + + + + + + + q = = = + q v                                         ",
"                                              V q + % : = % q + + + + + + + + q = = = = = = = q `                                           ",
"                                                  v q : + + + : q + q + q + + + = = = + = q Q                                               ",
"                                                      v e q q + + + + + + + + + = q e v Q                                                   ",
"                                                            ` U v u q q q q u v A X.                                                        ",
"                                                                                                                                            ",
"                                                                                                                                            ",
"                                                                                                                                            ",
"                                                                                                                                            ",
"                                                                                                                                            ",
"                                                                                                                                            ",
"                                                                                                                                            ",
"                                                                                                                                            ",
"                                                                                                                                            ",
"                                                                                                                                            "
};
