/* XPM */
static char *d1680496823[] = {
/* columns rows colors chars-per-pixel */
"70 70 76 1 ",
"  c None",
". c #FFFFFF",
"X c #FFFFFF",
"o c #FFFFFF",
"O c #FFFFFF",
"+ c #FFFFFF",
"@ c #FFFFFF",
"# c #FFFFFF",
"$ c #FFFFFF",
"% c #FFFFFF",
"& c #FFFFFF",
"* c #FFFFFF",
"= c #FFFFFF",
"- c #FFFFFF",
"; c #FFFFFF",
": c #FFFFFF",
"> c #FFFFFF",
", c #FFFFFF",
"< c #FFFFFF",
"1 c #FFFFFF",
"2 c #FFFFFF",
"3 c #FFFFFF",
"4 c #FFFFFF",
"5 c #FFFFFF",
"6 c #FFFFFF",
"7 c #FFFFFF",
"8 c #FFFFFF",
"9 c #FFFFFF",
"0 c #FFFFFF",
"q c #FFFFFF",
"w c #FFFFFF",
"e c #FFFFFF",
"r c #FFFFFF",
"t c #FFFFFF",
"y c #FFFFFF",
"u c #FFFFFF",
"i c #FFFFFF",
"p c #FFFFFF",
"a c #FFFFFF",
"s c #FFFFFF",
"d c #FFFFFF",
"f c #FFFFFF",
"g c #FFFFFF",
"h c #FFFFFF",
"j c #FFFFFF",
"k c #FFFFFF",
"l c #FFFFFF",
"z c #FFFFFF",
"x c #FFFFFF",
"c c #FFFFFF",
"v c #FFFFFF",
"b c #FFFFFF",
"n c #FFFFFF",
"m c #FFFFFF",
"M c #FFFFFF",
"N c #FFFFFF",
"B c #FFFFFF",
"V c #FFFFFF",
"C c #FFFFFF",
"Z c #FFFFFF",
"A c #FFFFFF",
"S c #FFFFFF",
"D c #FFFFFF",
"F c #FFFFFF",
"G c #FFFFFF",
"H c #FFFFFF",
"J c #FFFFFF",
"K c #FFFFFF",
"L c #FFFFFF",
"P c #FFFFFF",
"I c #FFFFFF",
"U c #FFFFFF",
"Y c #FFFFFF",
"T c #FFFFFF",
"R c #FFFFFF",
"E c #FFFFFF",
/* pixels */
"                                                                      ",
"                                                                      ",
"                                                                      ",
"                                                                      ",
"                                                                      ",
"                                                                      ",
"                                                                      ",
"                                                                      ",
"                                                                      ",
"                                                                      ",
"                                                                      ",
"               gpgpppgcgcclccc3grg33ppAA                              ",
"               3$$$$$$$o$$$$-o*o-o*+$%3%33cI                          ",
"               3$$$$$$$$$$$$o*o-o*o-$$$%$$$%pA                        ",
"               3o$$$$$$$$$$$-o-o-o-o$$$$$$$%o$3A                      ",
"               3o$$$$$$$$$$$o*o*o*o*$$$$$$$$$$$$p                     ",
"               3o$$$$$$$$$$$$$-o$$$$$$$$$$$$$$$-o-                    ",
"               3o$$$$$$$$o$$$$oo$$$$$$$$$$$$$$$$$o3                   ",
"               3o$$$$$$$o3%333$3%3$$$$%$$$$$$$$$$$$3                  ",
"               3o$$$$$$$$333$-3--pp333%$-$$$$$$$$$$$3                 ",
"               3o$$$$$$$3             Ap3$$$$$$$$$$$3c                ",
"               3o$$$$$$$3               E3$%$$$$$$$$$3                ",
"               3o$$$$$$$p                 c%$$$$$$$$3%c               ",
"               3o$$$$$$$3                  c$$$$$$$$$$3               ",
"               3o$$$$$$$3                   p$$$$$$$$$3               ",
"               3o$$$$$$$l                    3$$$$$$$$3p              ",
"               3o$$$$$$$3                    p$$$$$$$$$%              ",
"               3o$$$$$$$p                    c3$$$$$$$$3              ",
"               3o$$$$$$$3                     3$$$$$$$o3              ",
"               3o$$$$$$$p                     %$$$$$$$%3g             ",
"               3o$$$$$$$3                     p$%$$$$$o3p             ",
"               3o$$$$$$$p                     p3$$$$$$$$p             ",
"               3o$$$$$$$p                      3+$$$$$$$p             ",
"               3o$$$$$$$3                      3+$$$$$$$3             ",
"               3o$$$$$$$p                      3o$$$$$$$-             ",
"               3o$$$$$$$3                      3o$$$$$$$3             ",
"               3o$$$-o*$g                      3+$$$$$$$3             ",
"               3o$$$o*oor                      3o$$$$$$%3             ",
"               3o$$$-o-og                      3o$$$$$$%p             ",
"               3o$$$o*o$3                     33o$$$$$%%3             ",
"               3o$$$$$$o3                     33$$$$$$$3g             ",
"               3o$$$$$$og                     --$$$$$$o3              ",
"               3o$$$$$$og                     3o$$$$$$$3              ",
"               3o$$$$$$o3                    p$$$$$$$$%-              ",
"               3o$$$$$$$p                    3$$$$$$$%%p              ",
"               3o$$$$$$$3                   A$$$$$$$$+p               ",
"               3o$$$$$$$p                  R$$$$$$$$$$p               ",
"               3o$$$$$$op                 R3$$$$$$$$$3J               ",
"               3o$$$$$$op                c-o$$$$$$$$-3                ",
"               3o$$$$$$op              g3%%$$$$$$$$$3                 ",
"               3o$$$$$$$$DJRIIGDDDDDgp3%$$$$$$$$$$%%g                 ",
"               3o$$$$$$$$ooooo$o$$oo$$$%$$$$$$$$$$op                  ",
"               3o$$$$$$$$$$$$$$$$$$$$$$$$$$$$$$o$o3                   ",
"               3o$$$$$$$$$$$$$$$$$$$$$$$$$$$$$$3$3                    ",
"               3o$$$$$$$$$$$$$$$$$$$$$$$$$$$$$o3p                     ",
"               3o$$$$$$$$$$$$$$$$$$$$$$$$$$%o%3J                      ",
"               3$$$$$$$$-oo*$$$$$$$$$$$$3oo$3D                        ",
"               3$$$$$$$$o+--%%$$$$$3%3%333gJ                          ",
"               ppppppppprgg3p3p3pp--pppc                              ",
"                                                                      ",
"                                                                      ",
"                                                                      ",
"                                                                      ",
"                                                                      ",
"                                                                      ",
"                                                                      ",
"                                                                      ",
"                                                                      ",
"                                                                      ",
"                                                                      "
};
