/* XPM */
static char *e1680496823[] = {
/* columns rows colors chars-per-pixel */
"70 70 65 1 ",
"  c None",
". c #FFFFFF",
"X c #FFFFFF",
"o c #FFFFFF",
"O c #FFFFFF",
"+ c #FFFFFF",
"@ c #FFFFFF",
"# c #FFFFFF",
"$ c #FFFFFF",
"% c #FFFFFF",
"& c #FFFFFF",
"* c #FFFFFF",
"= c #FFFFFF",
"- c #FFFFFF",
"; c #FFFFFF",
": c #FFFFFF",
"> c #FFFFFF",
", c #FFFFFF",
"< c #FFFFFF",
"1 c #FFFFFF",
"2 c #FFFFFF",
"3 c #FFFFFF",
"4 c #FFFFFF",
"5 c #FFFFFF",
"6 c #FFFFFF",
"7 c #FFFFFF",
"8 c #FFFFFF",
"9 c #FFFFFF",
"0 c #FFFFFF",
"q c #FFFFFF",
"w c #FFFFFF",
"e c #FFFFFF",
"r c #FFFFFF",
"t c #FFFFFF",
"y c #FFFFFF",
"u c #FFFFFF",
"i c #FFFFFF",
"p c #FFFFFF",
"a c #FFFFFF",
"s c #FFFFFF",
"d c #FFFFFF",
"f c #FFFFFF",
"g c #FFFFFF",
"h c #FFFFFF",
"j c #FFFFFF",
"k c #FFFFFF",
"l c #FFFFFF",
"z c #FFFFFF",
"x c #FFFFFF",
"c c #FFFFFF",
"v c #FFFFFF",
"b c #FFFFFF",
"n c #FFFFFF",
"m c #FFFFFF",
"M c #FFFFFF",
"N c #FFFFFF",
"B c #FFFFFF",
"V c #FFFFFF",
"C c #FFFFFF",
"Z c #FFFFFF",
"A c #FFFFFF",
"S c #FFFFFF",
"D c #FFFFFF",
"F c #FFFFFF",
"G c #FFFFFF",
/* pixels */
"                                                                      ",
"                                                                      ",
"                                                                      ",
"                                                                      ",
"                                                                      ",
"                                                                      ",
"                                                                      ",
"                                                                      ",
"                                                                      ",
"                                                                      ",
"                                                                      ",
"                  G=iiww,wwi,wwwwi,wi,wwwi,ii,ww,w,i,                 ",
"                  .%%%%%,%%%%%%%@=%%%%%%@%%%%%%%,=*@,z                ",
"                  i@%%%%@=%%%%%%%%%%%%%%%%%%%%%%@@%=,                 ",
"                  ,@%%%%%%%%%%%%%%%%%%%%%%%%%%%%%%%%,                 ",
"                  ,@%%%%%%%%%%%%%%%%%%%%%%%%%%%%%%%%,                 ",
"                  ,@=%%%%%%%%%%%%%%%%%%%%%%%%%%%%%%=,                 ",
"                  ,@%%%%%%%%%%%%%%%%%%%%%%%%%%%%%%%%,                 ",
"                  ,@%%%%%%%%***=w%==%,=,=,%=*,,%,@*@,z                ",
"                  ,@%%%%%%%%dde,<<<=ww=i,wi=w,wiiikzv                 ",
"                  ,@%%%%%%%,                                          ",
"                  ,@%%%%%%%*                                          ",
"                  ,@%%%%%%%,                                          ",
"                  ,@%%%%%%%,                                          ",
"                  ,#%%%%%%@,                                          ",
"                  ,=%%%%%%@,                                          ",
"                  ,%%%%%%%%,                                          ",
"                  ,%%%%%%%%,                                          ",
"                  ,%%%%%%%%,                                          ",
"                  ,=%%%%%%%,                                          ",
"                  ,#%%%%%%%%ikkikwwiiwwwwwww,iiii,i                   ",
"                  ,@%%%%%%%%%%%%*@*%%,====%,==****,                   ",
"                  ,@%%%%%%%%%%%%@=%%%%%%%%%%%%%%%%,                   ",
"                  ,@%%%%%%%%%%%%%%%%%%%%%%%%%%%%%*,                   ",
"                  ,@%%%%%%%%%%%%%%%%%%%%%%%%%%%%%*,                   ",
"                  ,@%%%%%%%%%%%%%%%%%%%%%%%%%%%%%*,                   ",
"                  ,@%%%%%%%%%%%%%%%@%%%%%%%%%%%%%%*                   ",
"                  ,@%%%%%%%%%,,%%,=,,%%,%,,%%,%,%,w                   ",
"                  ,@%%%%%%%,                                          ",
"                  ,@%%%%%%@,                                          ",
"                  ,#=%%%%%@,                                          ",
"                  ,#%%%%%%@,                                          ",
"                  ,@%%%%%%@,                                          ",
"                  ,=%%%%%%@,                                          ",
"                  ,%%%%%%%@,                                          ",
"                  ,%%%%%%%%,                                          ",
"                  ,%%%%%%%@i                                          ",
"                  ,%%%%%%%=,                                          ",
"                  ,%%%%%%%%,                                          ",
"                  ,%%%%%%%%,                                          ",
"                  ,%%%%%%%%%vCCCCDmCCCNNCBNNCCNNCNmmmF                ",
"                  ,%%%%%%%%%@@@@@@@@@@@@@@@@@@@@@@@@@,                ",
"                  ,%%%%%%%%%%%%%@%%%%%%%@%%%%%%%%%%%%i                ",
"                  ,@%%%%%%%%%%%%@=%%%%%%%%%%%%%%%%%%Xk                ",
"                  ,@%%%%%%%%%%%%%%%%%%%%%%%%%%%%%%%%@w                ",
"                  ,@%%%=%%%%%%%%%%%%%%%%%%%%%%%=%%%%@w                ",
"                  ,@%%*@=@%=%%%=%%%%%%%%%%%%%%@@%%%%@w                ",
"                  ,,#*#,**%@**%,*=%,,%,*==*##*,@%%%=@i                ",
"                  ew,w,,,,,i,,,=,,,,,,,=,5,,,w,iwwi,,z                ",
"                                                                      ",
"                                                                      ",
"                                                                      ",
"                                                                      ",
"                                                                      ",
"                                                                      ",
"                                                                      ",
"                                                                      ",
"                                                                      ",
"                                                                      ",
"                                                                      "
};
