/* XPM */
static char *f1680496823[] = {
/* columns rows colors chars-per-pixel */
"70 70 57 1 ",
"  c None",
". c #FFFFFF",
"X c #FFFFFF",
"o c #FFFFFF",
"O c #FFFFFF",
"+ c #FFFFFF",
"@ c #FFFFFF",
"# c #FFFFFF",
"$ c #FFFFFF",
"% c #FFFFFF",
"& c #FFFFFF",
"* c #FFFFFF",
"= c #FFFFFF",
"- c #FFFFFF",
"; c #FFFFFF",
": c #FFFFFF",
"> c #FFFFFF",
", c #FFFFFF",
"< c #FFFFFF",
"1 c #FFFFFF",
"2 c #FFFFFF",
"3 c #FFFFFF",
"4 c #FFFFFF",
"5 c #FFFFFF",
"6 c #FFFFFF",
"7 c #FFFFFF",
"8 c #FFFFFF",
"9 c #FFFFFF",
"0 c #FFFFFF",
"q c #FFFFFF",
"w c #FFFFFF",
"e c #FFFFFF",
"r c #FFFFFF",
"t c #FFFFFF",
"y c #FFFFFF",
"u c #FFFFFF",
"i c #FFFFFF",
"p c #FFFFFF",
"a c #FFFFFF",
"s c #FFFFFF",
"d c #FFFFFF",
"f c #FFFFFF",
"g c #FFFFFF",
"h c #FFFFFF",
"j c #FFFFFF",
"k c #FFFFFF",
"l c #FFFFFF",
"z c #FFFFFF",
"x c #FFFFFF",
"c c #FFFFFF",
"v c #FFFFFF",
"b c #FFFFFF",
"n c #FFFFFF",
"m c #FFFFFF",
"M c #FFFFFF",
"N c #FFFFFF",
"B c #FFFFFF",
/* pixels */
"                                                                      ",
"                                                                      ",
"                                                                      ",
"                                                                      ",
"                                                                      ",
"                                                                      ",
"                                                                      ",
"                                                                      ",
"                                                                      ",
"                                                                      ",
"                                                                      ",
"                    nnxxxjjjhxxsxlxxlxxsxllxhxxshhhqx                 ",
"                    $oo#####oo#o##o#o:oo##o#o:oo####<                 ",
"                    <$#$#$$$:o:#:#o::#:#:#o::#:##$$#7                 ",
"                    <$$$$$$$#::#####o#:#####o#:#$$$#7                 ",
"                    <#$$$$$$#:o##::#:#o:#::#:#o:$$$#7                 ",
"                    <#$$:o::o:#:$$$$$$$$$$$$###:$$$#7                 ",
"                    <#$$#######:$$$$$$$$$$$#::##$$$$7                 ",
"                    <#$$o::o:#:::$:$<$$$:$::$:<#$<$#7                 ",
"                    <#$$:##:o:::<<<:<<:7,::::<qqqqqqN                 ",
"                    <#$$:####q                                        ",
"                    <#$$##:##<                                        ",
"                    <#$$#:#:#9                                        ",
"                    <#$$#:###q                                        ",
"                    :#$$$$$$#q                                        ",
"                    <#$$$$$$#q                                        ",
"                    <#$$$$$$#q                                        ",
"                    <#$$$$$$#q                                        ",
"                    <#$$$$$$#q                                        ",
"                    <#$$$$$$$q                                        ",
"                    <#$$$$$$#7                                        ",
"                    :#$$$$$$$$jxxnnnnnnnnjnkkkhhjn                    ",
"                    <#$$$$$$$$####oooooo###o#o#oo<                    ",
"                    <#$$$$$$$##$##$$$$$$$$####$$#7                    ",
"                    :#$$$$$$$$$$$$$$$$$$$$$$$$$$#t                    ",
"                    <#$$$$$$$$$$$$$$$$$$$$$$$$$$#t                    ",
"                    :#$$$$$$$$$$###:$$$$$$$$$$$$#7                    ",
"                    <#$$$$$$$$$$::##$$$$$$$$$$###7                    ",
"                    :#$$$$$$$$<<::<:$<:$<$:<<<<7<h                    ",
"                    :#$$$$$$#7                                        ",
"                    <#$$$$$$#7                                        ",
"                    <#$$$$$$#7                                        ",
"                    <#$$$$$$#q                                        ",
"                    :#$$$$$$#7                                        ",
"                    <#$$$$$$#7                                        ",
"                    :#$$$$$$#h                                        ",
"                    <#$$$$$$#7                                        ",
"                    :#$$$$$$$7                                        ",
"                    <#$$$$$$#9                                        ",
"                    <#$$$$$$#q                                        ",
"                    <#$$$$$$#q                                        ",
"                    <#$$$$$$#q                                        ",
"                    <#$$$$$$#q                                        ",
"                    <#$$$$$$#q                                        ",
"                    <#$$$$$$#h                                        ",
"                    <#$$$$$$#q                                        ",
"                    7$$$$$$$.h                                        ",
"                    %#######.h                                        ",
"                    jhhhqjjhqB                                        ",
"                                                                      ",
"                                                                      ",
"                                                                      ",
"                                                                      ",
"                                                                      ",
"                                                                      ",
"                                                                      ",
"                                                                      ",
"                                                                      ",
"                                                                      ",
"                                                                      "
};
