/* XPM */
static char *g1680496824[] = {
/* columns rows colors chars-per-pixel */
"70 70 155 2 ",
"   c None",
".  c #FFFFFF",
"X  c #FFFFFF",
"o  c #FFFFFF",
"O  c #FFFFFF",
"+  c #FFFFFF",
"@  c #FFFFFF",
"#  c #FFFFFF",
"$  c #FFFFFF",
"%  c #FFFFFF",
"&  c #FFFFFF",
"*  c #FFFFFF",
"=  c #FFFFFF",
"-  c #FFFFFF",
";  c #FFFFFF",
":  c #FFFFFF",
">  c #FFFFFF",
",  c #FFFFFF",
"<  c #FFFFFF",
"1  c #FFFFFF",
"2  c #FFFFFF",
"3  c #FFFFFF",
"4  c #FFFFFF",
"5  c #FFFFFF",
"6  c #FFFFFF",
"7  c #FFFFFF",
"8  c #FFFFFF",
"9  c #FFFFFF",
"0  c #FFFFFF",
"q  c #FFFFFF",
"w  c #FFFFFF",
"e  c #FFFFFF",
"r  c #FFFFFF",
"t  c #FFFFFF",
"y  c #FFFFFF",
"u  c #FFFFFF",
"i  c #FFFFFF",
"p  c #FFFFFF",
"a  c #FFFFFF",
"s  c #FFFFFF",
"d  c #FFFFFF",
"f  c #FFFFFF",
"g  c #FFFFFF",
"h  c #FFFFFF",
"j  c #FFFFFF",
"k  c #FFFFFF",
"l  c #FFFFFF",
"z  c #FFFFFF",
"x  c #FFFFFF",
"c  c #FFFFFF",
"v  c #FFFFFF",
"b  c #FFFFFF",
"n  c #FFFFFF",
"m  c #FFFFFF",
"M  c #FFFFFF",
"N  c #FFFFFF",
"B  c #FFFFFF",
"V  c #FFFFFF",
"C  c #FFFFFF",
"Z  c #FFFFFF",
"A  c #FFFFFF",
"S  c #FFFFFF",
"D  c #FFFFFF",
"F  c #FFFFFF",
"G  c #FFFFFF",
"H  c #FFFFFF",
"J  c #FFFFFF",
"K  c #FFFFFF",
"L  c #FFFFFF",
"P  c #FFFFFF",
"I  c #FFFFFF",
"U  c #FFFFFF",
"Y  c #FFFFFF",
"T  c #FFFFFF",
"R  c #FFFFFF",
"E  c #FFFFFF",
"W  c #FFFFFF",
"Q  c #FFFFFF",
"!  c #FFFFFF",
"~  c #FFFFFF",
"^  c #FFFFFF",
"/  c #FFFFFF",
"(  c #FFFFFF",
")  c #FFFFFF",
"_  c #FFFFFF",
"`  c #FFFFFF",
"'  c #FFFFFF",
"]  c #FFFFFF",
"[  c #FFFFFF",
"{  c #FFFFFF",
"}  c #FFFFFF",
"|  c #FFFFFF",
" . c #FFFFFF",
".. c #FFFFFF",
"X. c #FFFFFF",
"o. c #FFFFFF",
"O. c #FFFFFF",
"+. c #FFFFFF",
"@. c #FFFFFF",
"#. c #FFFFFF",
"$. c #FFFFFF",
"%. c #FFFFFF",
"&. c #FFFFFF",
"*. c #FFFFFF",
"=. c #FFFFFF",
"-. c #FFFFFF",
";. c #FFFFFF",
":. c #FFFFFF",
">. c #FFFFFF",
",. c #FFFFFF",
"<. c #FFFFFF",
"1. c #FFFFFF",
"2. c #FFFFFF",
"3. c #FFFFFF",
"4. c #FFFFFF",
"5. c #FFFFFF",
"6. c #FFFFFF",
"7. c #FFFFFF",
"8. c #FFFFFF",
"9. c #FFFFFF",
"0. c #FFFFFF",
"q. c #FFFFFF",
"w. c #FFFFFF",
"e. c #FFFFFF",
"r. c #FFFFFF",
"t. c #FFFFFF",
"y. c #FFFFFF",
"u. c #FFFFFF",
"i. c #FFFFFF",
"p. c #FFFFFF",
"a. c #FFFFFF",
"s. c #FFFFFF",
"d. c #FFFFFF",
"f. c #FFFFFF",
"g. c #FFFFFF",
"h. c #FFFFFF",
"j. c #FFFFFF",
"k. c #FFFFFF",
"l. c #FFFFFF",
"z. c #FFFFFF",
"x. c #FFFFFF",
"c. c #FFFFFF",
"v. c #FFFFFF",
"b. c #FFFFFF",
"n. c #FFFFFF",
"m. c #FFFFFF",
"M. c #FFFFFF",
"N. c #FFFFFF",
"B. c #FFFFFF",
"V. c #FFFFFF",
"C. c #FFFFFF",
"Z. c #FFFFFF",
"A. c #FFFFFF",
"S. c #FFFFFF",
"D. c #FFFFFF",
/* pixels */
"                                                                                                                                            ",
"                                                                                                                                            ",
"                                                                                                                                            ",
"                                                                                                                                            ",
"                                                                                                                                            ",
"                                                                                                                                            ",
"                                                                                                                                            ",
"                                                                                                                                            ",
"                                                                                                                                            ",
"                                                                                                                                            ",
"                                                          1.T y y y p 9 y y p f [ d.                                                        ",
"                                                    :.f 9 1 < < % < % 1 < % < < % 1 f [ C.                                                  ",
"                                                O.y % % % 1 < < 1 < < < < < < < < 1 < . < B n.                                              ",
"                                            6.y % < < < < < < < < < < < < < < < < < < < 9 % < (                                             ",
"                                          T % < < < < < < < < < < < < < < < < < < < < < < < < X f                                           ",
"                                        f . 4 < < < < < < < < < < < < < < < < < < < < < < < < 9 % 9 d.                                      ",
"                                      y % 9 % < 4 % 4 9 % 4 < < 1 1 1 1 1 1 < < < < < < < < < < < < 9                                       ",
"                                    p % < < < < 4 % 4 % % 4 > % < 1 1 1 1 1 < % < < < < < < < < < < % y                                     ",
"                                  M . 9 < < < < 4 4 3 4 > . 9 B O.4.m.q.q.$.Q p < . < < < < < < < < 1 % B                                   ",
"                                :.% 9 % < < < < % 3 3 % 9 :.                    q.M < < < < < < < < < 4 < 0.                                ",
"                                y < < < < < < < 4 4 % f D.                          [ % < < < < < < < < % f                                 ",
"                              B % < < < < < < < % % f                                 O.% < < < < < < < 9 4 d.                              ",
"                              9 1 < < < < < < < % f                                     T % < < < < < < 3 % (                               ",
"                            Q % < < < < < < < < 9                                         9 % < < < < < % % p                               ",
"                            y < < < < < < < < % :.                                        ( % 4 1 9 1 9 1 4 9                               ",
"                          :.< 1 < < < < < < % y                                           d.> % < % < % < % % 4.                            ",
"                          T % < < < < < < < % [                                             j.m.n.n.n.n.n.m.n.                              ",
"                          p % < < < < < < 1 1 d.                                                                                            ",
"                          9 4 < < < < < < % y                                                                                               ",
"                        1.1 1 < < < < < < % T                                                                                               ",
"                        [ % 4 < < < < < < < O.                                                                                              ",
"                        Q % < < < < < < 1 < 4.                                                                                              ",
"                        B % < < < < < < 1 9 d.                                                                                              ",
"                        T . < < < < < < > 9                             Z.T T B M L T T T T T T T T T T Q Q T T S.                          ",
"                        f % < < < < < < % 9                             d.. % % . . , . . . % X O O % X X X < . C.                          ",
"                        p % < < < < < 1 > y                             t.< 4 % < < < < < < < < % 4 4 % < < < 1 C.                          ",
"                        B < < < < < < < 1 9                             0.< 1 < < < < < < < < < 4 4 % 4 4 % 1 1 C.                          ",
"                        B % < < < < < < 1 9                             d.% 1 < 1 1 < < < < < < 9 % 9 % % 9 1 1 V.                          ",
"                        T % < < < < < < 1 1 T                           n.1 9 < 1 1 1 1 < 1 < < % % 9 4 4 9 < 1 V.                          ",
"                        Q < < < < < < < 1 9 B                           m.. % < . , , 1 . < > 1 4 4 % 4 4 % 1 1 C.                          ",
"                        O.9 9 < < < < < < < f                             [ [ #.[ #.#.[ O.[ O.9 < < < < < < 2 1 m.                          ",
"                          9 % < < < < < < % 9                                                 M < < < < < < 2 1 j.                          ",
"                          9 % < < < < < < 1 9 :.                                              a < < < < < < 2 2 j.                          ",
"                          f 4 < < < < < < < < M                                               1 < < < < < < 2 2 j.                          ",
"                          B 1 9 < < < < < < < 1                                             N 1 < < < < < < 1 2 j.                          ",
"                            9 < < < < < < < 1 % Q                                           y < < < < < < < 1 1 d.                          ",
"                            f 1 < < < < < < < 1 % q.                                      1.> 1 < < < < < < 1 1 j.                          ",
"                              9 < < < < < < < < 1 9                                       r > > < < < < < 1 1 9 q.                          ",
"                              B % 4 4 < < < < < < % y j.                                y % < < < < < < < < 2 2 d.                          ",
"                                y % < < < < < < < < < 1 1.                          6.y % < < < < < < < < < 2 2 q.                          ",
"                                #.4 9 4 < < < < < < < % % a :.                  O.f 1 < < < < < < < < < < < < < q.                          ",
"                                  B % 4 < < < < < < < 1 1 < % 9 f B Q T Q B f 9 4 < < < < < < < < < < < < < 1 y j.                          ",
"                                    f % 9 4 4 4 < < < < < < < < < < % 4 % < % < 9 < < < < < < < , < < < < < 1 2 d.                          ",
"                                      f % 9 % % < < < < < < < < 4 % % 4 < < < < < < < < < < 1 < O.2 % < < < < 9 0.                          ",
"                                        f 9 9 3 < < < < < < < < 4 4 4 4 < < < < < < < < < 1 4 B   M < < < < < 1 j.                          ",
"                                          #.9 % 9 < < < < < < < % % 9 % < < < < < < < < < < [     ( < < < < 1 1 m.                          ",
"                                              f 9 % 4 4 % 9 9 % 9 % 3 % 9 4 % 9 < < 9 % 9 4.      0.% 9 < < 9 1 j.                          ",
"                                                6.f 9 % % % < 9 4 4 4 4 % 4 % 4 % % < Q             9 % < % % % V.                          ",
"                                                      W f p 9 % % % % % % % % 9 a T j.              O.Q Q [ ( T                             ",
"                                                            2.#.W T f p B T [ d.                                                            ",
"                                                                                                                                            ",
"                                                                                                                                            ",
"                                                                                                                                            ",
"                                                                                                                                            ",
"                                                                                                                                            ",
"                                                                                                                                            ",
"                                                                                                                                            ",
"                                                                                                                                            ",
"                                                                                                                                            ",
"                                                                                                                                            "
};
