/* XPM */
static char *h1680496824[] = {
/* columns rows colors chars-per-pixel */
"70 70 46 1 ",
"  c None",
". c #FFFFFF",
"X c #FFFFFF",
"o c #FFFFFF",
"O c #FFFFFF",
"+ c #FFFFFF",
"@ c #FFFFFF",
"# c #FFFFFF",
"$ c #FFFFFF",
"% c #FFFFFF",
"& c #FFFFFF",
"* c #FFFFFF",
"= c #FFFFFF",
"- c #FFFFFF",
"; c #FFFFFF",
": c #FFFFFF",
"> c #FFFFFF",
", c #FFFFFF",
"< c #FFFFFF",
"1 c #FFFFFF",
"2 c #FFFFFF",
"3 c #FFFFFF",
"4 c #FFFFFF",
"5 c #FFFFFF",
"6 c #FFFFFF",
"7 c #FFFFFF",
"8 c #FFFFFF",
"9 c #FFFFFF",
"0 c #FFFFFF",
"q c #FFFFFF",
"w c #FFFFFF",
"e c #FFFFFF",
"r c #FFFFFF",
"t c #FFFFFF",
"y c #FFFFFF",
"u c #FFFFFF",
"i c #FFFFFF",
"p c #FFFFFF",
"a c #FFFFFF",
"s c #FFFFFF",
"d c #FFFFFF",
"f c #FFFFFF",
"g c #FFFFFF",
"h c #FFFFFF",
"j c #FFFFFF",
"k c #FFFFFF",
/* pixels */
"                                                                      ",
"                                                                      ",
"                                                                      ",
"                                                                      ",
"                                                                      ",
"                                                                      ",
"                                                                      ",
"                                                                      ",
"                                                                      ",
"                                                                      ",
"                                                                      ",
"               55-5----&e                    ---,,,,--0               ",
"               -####$$-+0                    7.-*+++$.5               ",
"               -######..0                    -.-**-.$.-               ",
"               -+#####..0                    -#..-....-               ",
"               -+#####&.0                    5.&...--.5               ",
"               -+######.0                    5.#--..#.-               ",
"               -+#####$.5                    -.#...-#+-               ",
"               -+######.9                    -.#...-#.-               ",
"               -+######+5                    9.#--..##-               ",
"               -+######.7                    -$#..-..+-               ",
"               -+######.7                    -.#.-..$.-               ",
"               -+######.7                    -.#..--#+-               ",
"               -+#####$.7                    -.#-...#.&               ",
"               -+######X5                    -.#.--.&.-               ",
"               -+######X5                    -.#.....&5               ",
"               -+######X5                    -.#-..-&.-               ",
"               -+######+5                    -.$-..-.&5               ",
"               -+######.0                    -.....-##-               ",
"               -$#######&ypfddffkkdffffffiiit-.-.-..##-               ",
"               -$########$$$-.$$-+.$+..+$$$#$#..-.-.##-               ",
"               -+########$-#$--$$--$--+-#-$-##-...-.##5               ",
"               -+###############$#####################-               ",
"               -+#####################################-               ",
"               -+#####################################-               ",
"               -+###################################&&&               ",
"               -+####################################.&               ",
"               -+####################################$-               ",
"               -+#######-                    -$######+-               ",
"               -+######$5                    -.######.&               ",
"               -+######.5                    -.#####-.-               ",
"               -+######+7                    -.#####.#&               ",
"               -+######.0                    -.######.&               ",
"               -+######+-                    -.######+-               ",
"               -+######.9                    -.#####-.-               ",
"               -+######$5                    -.#####.+&               ",
"               -+#######9                    -.#####&.-               ",
"               $+#######9                    -.#####o&&               ",
"               -+#######%                    -.######.-               ",
"               -+######@9                    -.######.&               ",
"               -+######X9                    -.#######-               ",
"               -+######X9                    -.#######5               ",
"               -O#####$.-                    -.#######-               ",
"               -+######+0                    -.#######-               ",
"               -+######.0                    -.######$-               ",
"               -+######.-                    -.######.&               ",
"               -#######.9                    5#######.7               ",
"               -#$$$$$$.0                    -##$$#-##7               ",
"               55--55-5-e                    5-55&-&--0               ",
"                                                                      ",
"                                                                      ",
"                                                                      ",
"                                                                      ",
"                                                                      ",
"                                                                      ",
"                                                                      ",
"                                                                      ",
"                                                                      ",
"                                                                      ",
"                                                                      "
};
