/* XPM */
static char *i1680496824[] = {
/* columns rows colors chars-per-pixel */
"70 70 20 1 ",
"  c None",
". c #FFFFFF",
"X c #FFFFFF",
"o c #FFFFFF",
"O c #FFFFFF",
"+ c #FFFFFF",
"@ c #FFFFFF",
"# c #FFFFFF",
"$ c #FFFFFF",
"% c #FFFFFF",
"& c #FFFFFF",
"* c #FFFFFF",
"= c #FFFFFF",
"- c #FFFFFF",
"; c #FFFFFF",
": c #FFFFFF",
"> c #FFFFFF",
", c #FFFFFF",
"< c #FFFFFF",
"1 c #FFFFFF",
/* pixels */
"                                                                      ",
"                                                                      ",
"                                                                      ",
"                                                                      ",
"                                                                      ",
"                                                                      ",
"                                                                      ",
"                                                                      ",
"                                                                      ",
"                                                                      ",
"                                                                      ",
"                              1&&&&&&:&<                              ",
"                              +X++.+.+.&                              ",
"                              &.X.+X.+@&                              ",
"                              &.XXXXX.X&                              ",
"                              &.+.+.X++&                              ",
"                              &.X.X.XX.@                              ",
"                              &.X+X+X.&@                              ",
"                              &.+.XX+.&.                              ",
"                              &.XX.+XX+&                              ",
"                              &.+X+.X+&X                              ",
"                              &..XXXX.X&                              ",
"                              &.X.+.X+&X                              ",
"                              &.X+XXX.+@                              ",
"                              &++.XX+X++                              ",
"                              &.XX.+.X@.                              ",
"                              &++X+X+X&.                              ",
"                              &+.X.XXXXX                              ",
"                              &++X+X+X&.                              ",
"                              &+.X.X.XXX                              ",
"                              &.XX+.+X&X                              ",
"                              &..+XX.+XX                              ",
"                              &.XX+.X.@X                              ",
"                              &..+XXX+&+                              ",
"                              &.X.X.XXX.                              ",
"                              &.X+X++.&X                              ",
"                              &.+X+X.++.                              ",
"                              &..X.XXX&X                              ",
"                              &.XX+.X.XX                              ",
"                              &..+XXX.&+                              ",
"                              &.X.XX.X+X                              ",
"                              &.X+.++X&.                              ",
"                              &.+XXX.XX.                              ",
"                              &..X.++X&+                              ",
"                              &.XX+.XX&X                              ",
"                              &..+XX.+X.                              ",
"                              &.X.X.X.X+                              ",
"                              &.X+X+X+&X                              ",
"                              &.+X+X+XXX                              ",
"                              &+.X.X.X&X                              ",
"                              &.XX+.XX&.                              ",
"                              &+.+XX.++X                              ",
"                              &.X.XXXX+X                              ",
"                              &.X+.+.+&.                              ",
"                              &.+XXXXX&X                              ",
"                              &+.X.+.+X&                              ",
"                              &XXXXXX+.&                              ",
"                              &@&+&@&+X&                              ",
"                              &&&&@&&&@,                              ",
"                                                                      ",
"                                                                      ",
"                                                                      ",
"                                                                      ",
"                                                                      ",
"                                                                      ",
"                                                                      ",
"                                                                      ",
"                                                                      ",
"                                                                      ",
"                                                                      "
};
