/* XPM */
static char *j1680496824[] = {
/* columns rows colors chars-per-pixel */
"70 70 103 2 ",
"   c None",
".  c #FFFFFF",
"X  c #FFFFFF",
"o  c #FFFFFF",
"O  c #FFFFFF",
"+  c #FFFFFF",
"@  c #FFFFFF",
"#  c #FFFFFF",
"$  c #FFFFFF",
"%  c #FFFFFF",
"&  c #FFFFFF",
"*  c #FFFFFF",
"=  c #FFFFFF",
"-  c #FFFFFF",
";  c #FFFFFF",
":  c #FFFFFF",
">  c #FFFFFF",
",  c #FFFFFF",
"<  c #FFFFFF",
"1  c #FFFFFF",
"2  c #FFFFFF",
"3  c #FFFFFF",
"4  c #FFFFFF",
"5  c #FFFFFF",
"6  c #FFFFFF",
"7  c #FFFFFF",
"8  c #FFFFFF",
"9  c #FFFFFF",
"0  c #FFFFFF",
"q  c #FFFFFF",
"w  c #FFFFFF",
"e  c #FFFFFF",
"r  c #FFFFFF",
"t  c #FFFFFF",
"y  c #FFFFFF",
"u  c #FFFFFF",
"i  c #FFFFFF",
"p  c #FFFFFF",
"a  c #FFFFFF",
"s  c #FFFFFF",
"d  c #FFFFFF",
"f  c #FFFFFF",
"g  c #FFFFFF",
"h  c #FFFFFF",
"j  c #FFFFFF",
"k  c #FFFFFF",
"l  c #FFFFFF",
"z  c #FFFFFF",
"x  c #FFFFFF",
"c  c #FFFFFF",
"v  c #FFFFFF",
"b  c #FFFFFF",
"n  c #FFFFFF",
"m  c #FFFFFF",
"M  c #FFFFFF",
"N  c #FFFFFF",
"B  c #FFFFFF",
"V  c #FFFFFF",
"C  c #FFFFFF",
"Z  c #FFFFFF",
"A  c #FFFFFF",
"S  c #FFFFFF",
"D  c #FFFFFF",
"F  c #FFFFFF",
"G  c #FFFFFF",
"H  c #FFFFFF",
"J  c #FFFFFF",
"K  c #FFFFFF",
"L  c #FFFFFF",
"P  c #FFFFFF",
"I  c #FFFFFF",
"U  c #FFFFFF",
"Y  c #FFFFFF",
"T  c #FFFFFF",
"R  c #FFFFFF",
"E  c #FFFFFF",
"W  c #FFFFFF",
"Q  c #FFFFFF",
"!  c #FFFFFF",
"~  c #FFFFFF",
"^  c #FFFFFF",
"/  c #FFFFFF",
"(  c #FFFFFF",
")  c #FFFFFF",
"_  c #FFFFFF",
"`  c #FFFFFF",
"'  c #FFFFFF",
"]  c #FFFFFF",
"[  c #FFFFFF",
"{  c #FFFFFF",
"}  c #FFFFFF",
"|  c #FFFFFF",
" . c #FFFFFF",
".. c #FFFFFF",
"X. c #FFFFFF",
"o. c #FFFFFF",
"O. c #FFFFFF",
"+. c #FFFFFF",
"@. c #FFFFFF",
"#. c #FFFFFF",
"$. c #FFFFFF",
"%. c #FFFFFF",
"&. c #FFFFFF",
/* pixels */
"                                                                                                                                            ",
"                                                                                                                                            ",
"                                                                                                                                            ",
"                                                                                                                                            ",
"                                                                                                                                            ",
"                                                                                                                                            ",
"                                                                                                                                            ",
"                                                                                                                                            ",
"                                                                                                                                            ",
"                                                                                                                                            ",
"                                                                                                                                            ",
"                                                                            o.a a a a a s a a a )                                           ",
"                                                                            W : * * * * * * * O z                                           ",
"                                                                            ) 2 , , , * 2 * & * z                                           ",
"                                                                            ` 2 < 2 * 2 * 2 * * C                                           ",
"                                                                            ` 2 < * , * , * , * C                                           ",
"                                                                            ` 2 , 2 * 2 * < & * z                                           ",
"                                                                            ` 2 < * , * < * < * C                                           ",
"                                                                            Q 2 < * * , * 2 & * C                                           ",
"                                                                            ) 2 ; 2 2 * , * * * z                                           ",
"                                                                            ` 2 < ; ; ; ; ; ; * C                                           ",
"                                                                            ) 2 < ; ; ; ; ; ; * z                                           ",
"                                                                            ) 2 < ; ; ; ; ; ; * h                                           ",
"                                                                            W 2 < ; ; ; ; ; ; * h                                           ",
"                                                                            R 2 < ; ; ; ; ; ; * k                                           ",
"                                                                            W 2 < ; ; ; ; ; ; * h                                           ",
"                                                                            ) : < ; ; ; ; ; ; * h                                           ",
"                                                                            ) : < ; ; ; ; ; ; * h                                           ",
"                                                                            ) 2 < ; ; ; ; ; 2 * a                                           ",
"                                                                            ) 2 < ; ; ; ; ; ; * k                                           ",
"                                                                            U 2 < ; ; ; ; ; * & h                                           ",
"                                                                            W 2 ; ; ; ; ; ; < * a                                           ",
"                                                                            W 2 < ; ; ; ; ; ; * a                                           ",
"                                                                            ) 2 < ; ; ; ; ; < & a                                           ",
"                                                                            U 2 < ; ; ; ; ; ; & a                                           ",
"                                                                            U 2 < ; ; ; ; ; ; * a                                           ",
"                                                                            W 2 < ; ; ; * 2 - * a                                           ",
"                                                                            ! 2 ; 2 ; ; , * , 2 a                                           ",
"                                                                            I 2 < * * 2 * 2 , * a                                           ",
"                                                                            W 2 2 * , * , * * 2 a                                           ",
"                                                                            A 2 2 , - , , * 2 * a                                           ",
"                                  &.` ` ` | ` | ` ) %.                      A 2 , - , * * 2 * , w                                           ",
"                                  k . * X * * * * * z                       U 2 ; 2 * 2 , * , * a                                           ",
"                                  U - , * < < & 2 2 W                       I 2 ; * , * * 2 * 2 w                                           ",
"                                  A * , & ; ; ; : * +.                      U 2 ; ; 2 * , * , * a                                           ",
"                                  A * - 2 ; ; ; * * `                       ` 2 2 ; * , * 2 - , a                                           ",
"                                  A * : ; ; ; ; - * z                       U - , * , * , * , - h                                           ",
"                                  U * , ; ; ; ; - * a                       z - * 2 * 2 * 2 : : z                                           ",
"                                  ` 2 2 * , * 2 * 2 2 $.                    2 * 2 * 2 * * , 2 2 W                                           ",
"                                    w * 2 * , * , * * 2                   ) , 2 * , * , , , - 2                                             ",
"                                    a * * , * 2 ; ; , * w               ) - , * , * 2 * * , * q                                             ",
"                                    A * 2 - , * ; ; ; ; - q z ) ` ..! a * * * 2 * 2 * , - : - C                                             ",
"                                      w * * - , ; ; ; ; ; * * * 2 - * * 2 - , * , * , * - - q                                               ",
"                                      ` * , , , ; ; ; ; ; ; * 2 , : * * * 2 * , * 2 * 2 : * C                                               ",
"                                        z O 2 , ; ; ; ; ; ; ; ; 2 * , * , * , * , * , * * t                                                 ",
"                                          g . 2 ; ; ; ; ; ; ; ; * , * 2 * 2 * 2 * 2 * * q                                                   ",
"                                            z * * * , - * , * * , * * < * , * 2 * 2 * w                                                     ",
"                                              +.t * * - 2 * 2 * * 2 < & 2 * , * * - z                                                       ",
"                                                  ` a 2 * O * * * , * * * * & a A $.                                                        ",
"                                                        +.C h a w 2 a a g ) $.                                                              ",
"                                                                                                                                            ",
"                                                                                                                                            ",
"                                                                                                                                            ",
"                                                                                                                                            ",
"                                                                                                                                            ",
"                                                                                                                                            ",
"                                                                                                                                            ",
"                                                                                                                                            ",
"                                                                                                                                            ",
"                                                                                                                                            "
};
