/* XPM */
static char *jiphyeonjeon_logo1680479500[] = {
/* columns rows colors chars-per-pixel */
"150 112 2 1 ",
"  c None",
". c white",
/* pixels */
"                                       ...................      .............................................                                         ",
"                                      ...................        ............................................                                         ",
"                                     ...................                                                    ..                                        ",
"                                    ....................          ............................................                                        ",
"                                   ....................            ............................................                                       ",
"                                  ....................                                                      ...                                       ",
"                                 ....................                ...........................................                                      ",
"                                 ...................                  ..........................................                                      ",
"                                ...................                    .                                    .....                                     ",
"                               ...................                     ...........................................                                    ",
"                              ....................                       .................................. ......                                    ",
"                             ....................                                                            ......                                   ",
"                            ....................                                                              .....                                   ",
"                           ....................                                                               ......                                  ",
"                           ...................                                                                 .....                                  ",
"                          ...................                                                                   .....                                 ",
"                         ...................                                                                    ......                                ",
"                        ....................                                                                     .....                                ",
"                       ....................                                                                       .....                               ",
"                      ....................                                                                        ......                              ",
"                     ....................                                                                          .....                              ",
"                     ...................                                                                            .....                             ",
"                    ...................                                                                             ......                            ",
"                   ...................                                                                               .....                            ",
"                  ....................                                                                                .....                           ",
"                 ....................                                                                                  .....                          ",
"                ....................                                                                                   ......                         ",
"               ....................                                                                                     .....                         ",
"               ...................                                                                                       .....                        ",
"              ...................                                                                                         .....                       ",
"             ...................                                                                                           .....                      ",
"            ....................                                                                                           ......                     ",
"           ....................                                                                                             ......                    ",
"          ....................                                                                                               ......                   ",
"         ....................                                                                                                 ......                  ",
"         ...................                                                                                                   ......                 ",
"        ...................                                                                                                     ......                ",
"       ...................                                                                                                       ......               ",
"      ....................                                                                                                        ......              ",
"     ....................                                                                                                          ......             ",
"    ....................                                                                                                            ......            ",
"   ....................                                            ........................ .........................                ......           ",
"   ...................                                            ......................... .........................                 .......         ",
"  ...................                                             .......................   .........................                  .......        ",
" ...................                                              ......................    .........................                   .......       ",
"..........................................................        .....................     .........................                     .......     ",
"...........................................................       ....................      .........................                      .......    ",
"..........................................................        ...................       .........................                       ........  ",
"...........................................................       ..................        .........................           ..................... ",
"...........................................................       .................         .........................           ....................  ",
"...........................................................       ................          .........................            ..................   ",
"...........................................................       ...............           .........................             ................    ",
"...........................................................       ..............            .........................                                 ",
"...........................................................       .............             .........................                                 ",
"...........................................................       ............              .........................                                 ",
"...........................................................       ..........                .........................                                 ",
"...........................................................       .........                 .........................                                 ",
"...........................................................       ........                  .........................                                 ",
"...........................................................       .......                   .........................                                 ",
"...........................................................       ......                    .........................                                 ",
"...........................................................       .....                     .........................                                 ",
"...........................................................       ....                      .........................                                 ",
"...........................................................       ...                       .........................                                 ",
"...........................................................       ..                        .........................                                 ",
"                                       ....................                                 .........................                                 ",
"                                       ....................                                ..........................                                 ",
"                                       ....................                               ..........................                                  ",
"                                       ....................                              ..........................                                   ",
"                                       ....................                             .........................                                     ",
"                                       ....................                            .........................                                      ",
"                                       ....................                           .........................                                       ",
"                                       ....................                          .........................                                        ",
"                                       ....................                         .........................                                         ",
"                                       ....................                       ..........................                                          ",
"                                       ....................                      ..........................                                           ",
"                                       ....................                     ..........................                                            ",
"                                       ....................                    ..........................                                             ",
"                                       ....................                   ..........................                                              ",
"                                       ....................                  ..........................                                               ",
"                                       ....................                 ..........................                                                ",
"                                       ....................                .........................                                                  ",
"                                       ....................               .........................                                                   ",
"                                       ....................              .........................                                                    ",
"                                       ....................             .........................                                                     ",
"                                       ...................             .........................                                                      ",
"                                       ....................          ..........................                                                       ",
"                                       ...................          ..........................                                                        ",
"                       ..                                          ..........................                                                         ",
"                       ....                                       ..........................                                                          ",
"                         .....                                    ..........................                        .                                 ",
"                            ....                                  ..........................                       ..                                 ",
"                              .....                               ..........................                      ...                                 ",
"                                 ....                             ..........................                     ....                                 ",
"                                   .....                          ..........................                    .....                                 ",
"                                      ....                        ..........................                   ......                                 ",
"                                        .....                     ..........................                  .......                                 ",
"                                           ....                   ..........................                 ........                                 ",
"                                             .....                ..........................               ..........                                 ",
"                                                .....             ..........................              ...........                                 ",
"                                                  .....           ..........................             ............                                 ",
"                                                    .....         ..........................            .............                                 ",
"                    .......................................       ..........................           ..............                                 ",
"                    .......................................       ..........................          ...............                                 ",
"                                                          .       ..........................         ................                                 ",
"                    .......................................       ..........................        .................                                 ",
"                     .......................................      ..........................       ..................                                 ",
"                                                          ..      ..........................      ...................                                 ",
"                     .......................................      ..........................     ....................                                 ",
"                     ......................................       ..........................   ......................                                 ",
"                                                          .       ..........................  .......................                                 ",
"                    .......................................       .......................... ........................                                 ",
"                    ......................................        ...................................................                                 "
};
