/* XPM */
static char *k1680496824[] = {
/* columns rows colors chars-per-pixel */
"70 70 75 1 ",
"  c None",
". c #FFFFFF",
"X c #FFFFFF",
"o c #FFFFFF",
"O c #FFFFFF",
"+ c #FFFFFF",
"@ c #FFFFFF",
"# c #FFFFFF",
"$ c #FFFFFF",
"% c #FFFFFF",
"& c #FFFFFF",
"* c #FFFFFF",
"= c #FFFFFF",
"- c #FFFFFF",
"; c #FFFFFF",
": c #FFFFFF",
"> c #FFFFFF",
", c #FFFFFF",
"< c #FFFFFF",
"1 c #FFFFFF",
"2 c #FFFFFF",
"3 c #FFFFFF",
"4 c #FFFFFF",
"5 c #FFFFFF",
"6 c #FFFFFF",
"7 c #FFFFFF",
"8 c #FFFFFF",
"9 c #FFFFFF",
"0 c #FFFFFF",
"q c #FFFFFF",
"w c #FFFFFF",
"e c #FFFFFF",
"r c #FFFFFF",
"t c #FFFFFF",
"y c #FFFFFF",
"u c #FFFFFF",
"i c #FFFFFF",
"p c #FFFFFF",
"a c #FFFFFF",
"s c #FFFFFF",
"d c #FFFFFF",
"f c #FFFFFF",
"g c #FFFFFF",
"h c #FFFFFF",
"j c #FFFFFF",
"k c #FFFFFF",
"l c #FFFFFF",
"z c #FFFFFF",
"x c #FFFFFF",
"c c #FFFFFF",
"v c #FFFFFF",
"b c #FFFFFF",
"n c #FFFFFF",
"m c #FFFFFF",
"M c #FFFFFF",
"N c #FFFFFF",
"B c #FFFFFF",
"V c #FFFFFF",
"C c #FFFFFF",
"Z c #FFFFFF",
"A c #FFFFFF",
"S c #FFFFFF",
"D c #FFFFFF",
"F c #FFFFFF",
"G c #FFFFFF",
"H c #FFFFFF",
"J c #FFFFFF",
"K c #FFFFFF",
"L c #FFFFFF",
"P c #FFFFFF",
"I c #FFFFFF",
"U c #FFFFFF",
"Y c #FFFFFF",
"T c #FFFFFF",
"R c #FFFFFF",
/* pixels */
"                                                                      ",
"                                                                      ",
"                                                                      ",
"                                                                      ",
"                                                                      ",
"                                                                      ",
"                                                                      ",
"                                                                      ",
"                                                                      ",
"                                                                      ",
"                                                                      ",
"               V>>u>hh>>>R                  h>h>p>=eu>>=Y             ",
"               >>+&&&+&+>I                 uu=&o=&+&==>u              ",
"               >&>X+X&++=Y                u===++=++X=>u               ",
"               >>+&++++>>H               hh++&+XX&&=>>                ",
"               >&+X+X&+u=H              h>==+++&++&+h                 ",
"               y>&X++++>=K             G>++++++&+&+>                  ",
"               >&&&+&X+>>K            u>=X&X&&++&+>                   ",
"               u&+++X&+>=H            >X+&+&X++&=>                    ",
"               h&X&X+++>>H           u&++++X&++=u                     ",
"               >&&X&+++>=H          >=++&+&X+&+u                      ",
"               h&+++&X+>=G         >X&+&X++++=>                       ",
"               u&XX+X&+>>G        >=+++X+X&+=u                        ",
"               u&+&++++>=H       >==X&+&+&+&>                         ",
"               >&&X+X++>=H      h++&X&X++&+>                          ",
"               >&+&+&+&=>h     >+&+X++&+&+>                           ",
"               >>+X+X+X>>M    V+&&X&+XX+X>                            ",
"               u>X&+&++*uu   >X>+++++&+Xh                             ",
"               u>+X++&&*>h  u>=++&&+&+&>                              ",
"               >>&&++X+=uh h==&+++++X+>                               ",
"               >>+++++++>GV>=+++&X+&+=>                               ",
"               u>X&X&X&X==+o+&&X+++&+=>>                              ",
"               u>X+X+X+X&+&+&+&+&X++&+&>h                             ",
"               =>&+&+&+&X+X+X+X+++X&X++=u                             ",
"               >>+++&X++++&X+++&&+&+X&+&>=                            ",
"               u>+X&++X&X&++X&++X+X++++X>>>                           ",
"               =>X++++&++X++++&=X&X&+++&&X>                           ",
"               u>&X&X&X++&X&===G>+++&X+X++=&                          ",
"               >>++++++X+X++&>h  >>+X&+&&X&>>                         ",
"               >>+X&X&+&+&+o>h   u>++++X+++=uh                        ",
"               u>&++&+&X+&+uu     ==+&+++++&&>                        ",
"               >>XX&X++++=>u       >+=+&&X+X+&>                       ",
"               u>+&+&+&X==u        >>=++X&+&++>e                      ",
"               u>+X+X+&+>u          =o&&+++XX>+>                      ",
"               >>X+X+X+>&K           >+++&&X+++&=                     ",
"               u>&+&+&+=+M           =>>+X++X&+X>h                    ",
"               u>++++&&==G            ==+X+X+X+X&>V                   ",
"               >>+X&+++>=G             uo&+&+&+&++>                   ",
"               u>&X&X++>>h             >>XX&X&X&++&>                  ",
"               >>+++&++=>G              +&++++++&+=>h                 ",
"               >>+++X&X>=G               >&X+&X++&=+>                 ",
"               u>X&X+++>=V               >>++X&++++&+>                ",
"               >>&X&+++=>M                =&X+++&X++>>h               ",
"               >>+++&&+>uh                 >&+&X++X&++>               ",
"               >>++&+++>=h                 p>>+&&+&+&+o>              ",
"               >>&+++&+>>G                  +>++X+X+X++&h             ",
"               >>==+++=+>H                   >==+++X++++>G            ",
"               u>=+>>>==uH                   >>=+X&>&&&==u            ",
"               h>u=uu>=u=T                    Veuheeuhup>=Y           ",
"                                                                      ",
"                                                                      ",
"                                                                      ",
"                                                                      ",
"                                                                      ",
"                                                                      ",
"                                                                      ",
"                                                                      ",
"                                                                      ",
"                                                                      ",
"                                                                      "
};
