/* XPM */
static char *l1680496824[] = {
/* columns rows colors chars-per-pixel */
"70 70 52 1 ",
"  c None",
". c #FFFFFF",
"X c #FFFFFF",
"o c #FFFFFF",
"O c #FFFFFF",
"+ c #FFFFFF",
"@ c #FFFFFF",
"# c #FFFFFF",
"$ c #FFFFFF",
"% c #FFFFFF",
"& c #FFFFFF",
"* c #FFFFFF",
"= c #FFFFFF",
"- c #FFFFFF",
"; c #FFFFFF",
": c #FFFFFF",
"> c #FFFFFF",
", c #FFFFFF",
"< c #FFFFFF",
"1 c #FFFFFF",
"2 c #FFFFFF",
"3 c #FFFFFF",
"4 c #FFFFFF",
"5 c #FFFFFF",
"6 c #FFFFFF",
"7 c #FFFFFF",
"8 c #FFFFFF",
"9 c #FFFFFF",
"0 c #FFFFFF",
"q c #FFFFFF",
"w c #FFFFFF",
"e c #FFFFFF",
"r c #FFFFFF",
"t c #FFFFFF",
"y c #FFFFFF",
"u c #FFFFFF",
"i c #FFFFFF",
"p c #FFFFFF",
"a c #FFFFFF",
"s c #FFFFFF",
"d c #FFFFFF",
"f c #FFFFFF",
"g c #FFFFFF",
"h c #FFFFFF",
"j c #FFFFFF",
"k c #FFFFFF",
"l c #FFFFFF",
"z c #FFFFFF",
"x c #FFFFFF",
"c c #FFFFFF",
"v c #FFFFFF",
"b c #FFFFFF",
/* pixels */
"                                                                      ",
"                                                                      ",
"                                                                      ",
"                                                                      ",
"                                                                      ",
"                                                                      ",
"                                                                      ",
"                                                                      ",
"                                                                      ",
"                                                                      ",
"                                                                      ",
"                    6yyyttt64j                                        ",
"                    &XX@@@@@.1                                        ",
"                    =$$$$$$$.t                                        ",
"                    &$$$$$$$@4                                        ",
"                    =$$$$$$$@t                                        ",
"                    =@$$$$$$@1                                        ",
"                    =@$$$$$$$4                                        ",
"                    =@$$$$$$$4                                        ",
"                    =@$$$$$$@1                                        ",
"                    =@$$$$$$$6                                        ",
"                    =@$$$$$$$6                                        ",
"                    =@$$$$$$$1                                        ",
"                    =@$$$$$$$4                                        ",
"                    =@$$$$$$$1                                        ",
"                    =@$$$$$$$4                                        ",
"                    =@$$$$$$@4                                        ",
"                    =@$$$$$$$6                                        ",
"                    =@$$$$$$@4                                        ",
"                    =@$$$$$$@6                                        ",
"                    =@$$$$$$@4                                        ",
"                    =@$$$$$$@4                                        ",
"                    =@$$$$$$@6                                        ",
"                    =@$$$$$$@6                                        ",
"                    =@$$$$$$@1                                        ",
"                    =@$$$$$$@4                                        ",
"                    =@$$$$$$@4                                        ",
"                    =@$$$$$$@1                                        ",
"                    =@$$$$$$@1                                        ",
"                    =@$$$$$$$6                                        ",
"                    =@$$$$$$@4                                        ",
"                    =@$$$$$$@1                                        ",
"                    =@$$$$$$@4                                        ",
"                    =@$$$$$$X4                                        ",
"                    =@$$$$$$@1                                        ",
"                    =@$$$$$$@4                                        ",
"                    =@$$$$$$@4                                        ",
"                    =@$$$$$$@1                                        ",
"                    =#$$$$$$@1                                        ",
"                    =#$$$$$$$4                                        ",
"                    =#$$$$$$$$tyddyddpyaadppdjyjdyady                 ",
"                    =@$$$$$$$$%@$$$$$$@$$$X@@@@@$@@$@k                ",
"                    =@$$$$$$$$$$$$$$$$$$$$$$$$$$$$$&&l                ",
"                    =@$$$$$$$$$$$$$$$$$$$$$$$$$$$$$&$v                ",
"                    =@$$$$$$$$$$$$$$$$$$$$$$$$$$$$$&$v                ",
"                    =@$$$$$$$$$$$$$$$$$$$$$$$$$$$$$&$x                ",
"                    =&$$&@&@$$&&$$$$$$$$$$$$$$$$$$$$$v                ",
"                    =&$$@&@=$&&&$$$&$$%%$$$$$$$$@@$@$v                ",
"                    4==1==>>=&=&==&1&1==1>=14476466t7b                ",
"                                                                      ",
"                                                                      ",
"                                                                      ",
"                                                                      ",
"                                                                      ",
"                                                                      ",
"                                                                      ",
"                                                                      ",
"                                                                      ",
"                                                                      ",
"                                                                      "
};
