/* XPM */
static char *m1680496825[] = {
/* columns rows colors chars-per-pixel */
"70 70 79 1 ",
"  c None",
". c #FFFFFF",
"X c #FFFFFF",
"o c #FFFFFF",
"O c #FFFFFF",
"+ c #FFFFFF",
"@ c #FFFFFF",
"# c #FFFFFF",
"$ c #FFFFFF",
"% c #FFFFFF",
"& c #FFFFFF",
"* c #FFFFFF",
"= c #FFFFFF",
"- c #FFFFFF",
"; c #FFFFFF",
": c #FFFFFF",
"> c #FFFFFF",
", c #FFFFFF",
"< c #FFFFFF",
"1 c #FFFFFF",
"2 c #FFFFFF",
"3 c #FFFFFF",
"4 c #FFFFFF",
"5 c #FFFFFF",
"6 c #FFFFFF",
"7 c #FFFFFF",
"8 c #FFFFFF",
"9 c #FFFFFF",
"0 c #FFFFFF",
"q c #FFFFFF",
"w c #FFFFFF",
"e c #FFFFFF",
"r c #FFFFFF",
"t c #FFFFFF",
"y c #FFFFFF",
"u c #FFFFFF",
"i c #FFFFFF",
"p c #FFFFFF",
"a c #FFFFFF",
"s c #FFFFFF",
"d c #FFFFFF",
"f c #FFFFFF",
"g c #FFFFFF",
"h c #FFFFFF",
"j c #FFFFFF",
"k c #FFFFFF",
"l c #FFFFFF",
"z c #FFFFFF",
"x c #FFFFFF",
"c c #FFFFFF",
"v c #FFFFFF",
"b c #FFFFFF",
"n c #FFFFFF",
"m c #FFFFFF",
"M c #FFFFFF",
"N c #FFFFFF",
"B c #FFFFFF",
"V c #FFFFFF",
"C c #FFFFFF",
"Z c #FFFFFF",
"A c #FFFFFF",
"S c #FFFFFF",
"D c #FFFFFF",
"F c #FFFFFF",
"G c #FFFFFF",
"H c #FFFFFF",
"J c #FFFFFF",
"K c #FFFFFF",
"L c #FFFFFF",
"P c #FFFFFF",
"I c #FFFFFF",
"U c #FFFFFF",
"Y c #FFFFFF",
"T c #FFFFFF",
"R c #FFFFFF",
"E c #FFFFFF",
"W c #FFFFFF",
"Q c #FFFFFF",
"! c #FFFFFF",
/* pixels */
"                                                                      ",
"                                                                      ",
"                                                                      ",
"                                                                      ",
"                                                                      ",
"                                                                      ",
"                                                                      ",
"                                                                      ",
"                                                                      ",
"                                                                      ",
"                                                                      ",
"             F8uuu8uxuu8u!                  U8ku88kek8u8E             ",
"             o*$$$$$$$$$$u                  8O$$8o$$$$$$Z             ",
"             8$$$$$$$$$$$8                  8*$$oo$$$$*$Z             ",
"             8$$$$$$$$$$*8                 F***$$$$$$$$$Z             ",
"             8$$$$$$$$$$$*Z                Z***$$$$$$$$*Z             ",
"             8$$$$$$$$$$$$8                8$$$$$$$$$$$$Z             ",
"             8$$$$$$$$$$$$*                8o$$$$$$$$$$$Z             ",
"             8o$$$$$$$$$$**Z              F**$$$$$$$$$$$F             ",
"             8o$$$$$$$$$$**u              u$$$$$$$$$$$$$J             ",
"             *$$$$$$$$$$$$o8              8o$$$$$$$$$$$$J             ",
"             8$$$$$$$$$$$$**Q            R$$$$$$$$$$$$$$J             ",
"             8$$$$$$$$$$$$$$k            u$$$$$$$$$$$$$$J             ",
"             $$$$$$$$$$$$$$o8            u$$$$$$$$$$$$$$J             ",
"             8o$$$$$Oo$$$$$o8            u*$$$$$8$$$$$$$F             ",
"             $o$$$$$8R$$$$$**Z          J**$$$$*Q$$$$$$$S             ",
"             8$$$$$$* **$$$$$8          u$$$$$*u **$$$$$S             ",
"             8$$$$$o8 8*$$$$o8          *$$$$$u  8o$$$$$Z             ",
"             8$$$$$.*  8$$$$*uI         8*$$$O8  8OO$$$$Z             ",
"             *$$$$$.u  8o$$$$$Z        k**$$$Ow  8o*$$$$Z             ",
"             *O$$$$ou  8$$$$$$$        u$$$o*8F  8o$$$$$Z             ",
"             8$$$$$o8  Z**$$$$*        8o$$oO8   *o$$$$$Z             ",
"             *$$$$$o8   **$$$**Z      F8$$$$$8   8oo$$$$x             ",
"             $$$$$$ow   u$$$$$$u      w8$$$$*u   8oo$$$$Z             ",
"             8$$$$$o8   u**$$$o*      8o$$$$8    *o$$$$$Z             ",
"             $$$$$*ow    u$$$$*8Z     *o$$$*8    *O$$$$$Z             ",
"             8o$$$$ow    $$$$$$*8    F**$$$*8    uo$$$$$Z             ",
"             $o$$$$.8    88$$$$$8    u**$$**k    8o$$$$$Z             ",
"             8$$$$$.8    Z8o$$$$8    8$$$$o8     8O$$$$$Z             ",
"             2$$$$$.8     *o$$$*88   8*$$oo8     8oo$$$$Z             ",
"             8$$$$$.*     8Oo$$$O8  u**$$*=k     *o$$$$$Z             ",
"             2$$$$$.u     u8*$$$O8  u$$$$*u      *o$$$$$Z             ",
"             2o$$$$.u      8*$$$O8k *$$$$$$      uo$$$$$Z             ",
"             8$$$$$.x      8$$$$$*kR**$$$88      8o$$$$$Z             ",
"             8$$$$$ou      8*$$$$$88oo$$O8Z      8Oo$$$$Z             ",
"             $$$$$$ox       8O$$$$$o$o$$o*       8o$$$$$Z             ",
"             8$$$$$ou       *$$$$$$$$$$$$u       *o$$$$$Z             ",
"             2$$$$$ox       8*$$$$$$$$$$*x       *o$$$$OZ             ",
"             $$$$$$.u       Z8*$$$$$$$$o8        8O$$$$$Z             ",
"             8$$$$$.u        8o$$$$$$$$$8        uo$$$$*Z             ",
"             8$$$$$.u        u$o$$$$$$$*x        *o$$$$*x             ",
"             *$$$$$.x        u**$$$$$$$*         *.$$$$*Z             ",
"             $o$$$$.8         8o$$$$$$$8         u$$$$$*Z             ",
"             8$$$$$.x         8$$$$$$$$u         8$$$$$$Z             ",
"             8$$$$oow         kO$$$$o*8D         8*$$$$*x             ",
"             8$$$oooZ         U8*$$$oO8          8*$$$$$Z             ",
"             2oo$$$$u          8o$$$$ou          8$$$$*$Z             ",
"             8$o$$*ox          k$$$$$*R          8oo$*$oZ             ",
"             Z8uuuu8Z          Q8kkux8           kkuuuu8Q             ",
"                                                                      ",
"                                                                      ",
"                                                                      ",
"                                                                      ",
"                                                                      ",
"                                                                      ",
"                                                                      ",
"                                                                      ",
"                                                                      ",
"                                                                      ",
"                                                                      "
};
