/* XPM */
static char *n1680496825[] = {
/* columns rows colors chars-per-pixel */
"70 70 64 1 ",
"  c None",
". c #FFFFFF",
"X c #FFFFFF",
"o c #FFFFFF",
"O c #FFFFFF",
"+ c #FFFFFF",
"@ c #FFFFFF",
"# c #FFFFFF",
"$ c #FFFFFF",
"% c #FFFFFF",
"& c #FFFFFF",
"* c #FFFFFF",
"= c #FFFFFF",
"- c #FFFFFF",
"; c #FFFFFF",
": c #FFFFFF",
"> c #FFFFFF",
", c #FFFFFF",
"< c #FFFFFF",
"1 c #FFFFFF",
"2 c #FFFFFF",
"3 c #FFFFFF",
"4 c #FFFFFF",
"5 c #FFFFFF",
"6 c #FFFFFF",
"7 c #FFFFFF",
"8 c #FFFFFF",
"9 c #FFFFFF",
"0 c #FFFFFF",
"q c #FFFFFF",
"w c #FFFFFF",
"e c #FFFFFF",
"r c #FFFFFF",
"t c #FFFFFF",
"y c #FFFFFF",
"u c #FFFFFF",
"i c #FFFFFF",
"p c #FFFFFF",
"a c #FFFFFF",
"s c #FFFFFF",
"d c #FFFFFF",
"f c #FFFFFF",
"g c #FFFFFF",
"h c #FFFFFF",
"j c #FFFFFF",
"k c #FFFFFF",
"l c #FFFFFF",
"z c #FFFFFF",
"x c #FFFFFF",
"c c #FFFFFF",
"v c #FFFFFF",
"b c #FFFFFF",
"n c #FFFFFF",
"m c #FFFFFF",
"M c #FFFFFF",
"N c #FFFFFF",
"B c #FFFFFF",
"V c #FFFFFF",
"C c #FFFFFF",
"Z c #FFFFFF",
"A c #FFFFFF",
"S c #FFFFFF",
"D c #FFFFFF",
"F c #FFFFFF",
/* pixels */
"                                                                      ",
"                                                                      ",
"                                                                      ",
"                                                                      ",
"                                                                      ",
"                                                                      ",
"                                                                      ",
"                                                                      ",
"                                                                      ",
"                                                                      ",
"                                                                      ",
"               c4yyypy4yy                     y=444==4y               ",
"               4.#######@4                   A4#==.4##4               ",
"               4.#######@4c                  A4#=o..4@#               ",
"               y.#########4                  A4=.44.##=               ",
"               4.##########4                 D4#..=.##=               ",
"               4###########4c                Dy4=..=.4#               ",
"               y.###########4                F@@.44.=.=               ",
"               4.############y               Fy@....4.=               ",
"               y.############4               F&@=4.=.==               ",
"               4.#############4              Fyy.4=.4.=               ",
"               y.############.4a             F@@....=.=               ",
"               4.#############4=             F&&=..4..=               ",
"               y.#############..4            Fy&.4=.4.=               ",
"               4.###########4..44p           D&@######=               ",
"               y.###########.==.#4           Ay@######=               ",
"               4.#######4###....#4y          D4#######=               ",
"               y.######4 y4#4.=4##4          D@4######=               ",
"               4.######4  4====..=.4         F4=######=               ",
"               y.#####.4y p4=...=.=4c        A#=######=               ",
"               4.######44  44=.4.4#.4        A@4######=               ",
"               y.#####.4p   =.=...#==4       A4=######=               ",
"               y.4...=o4p   44##=.###4m      M=#######=               ",
"               4..=4=.=4c    =##.4####4      A4.######=               ",
"               y..=..==4c     4..######p     Ay=######=               ",
"               4....4.o4c     4@+######4     M4#######=               ",
"               y..4.=.+4c      +########4     4=######=               ",
"               4.==...+4c      c4#######4p    =o######=               ",
"               y...4@4+4c       =4######.=    4o######=               ",
"               4.=..@++eb        =######4.a   4=######=               ",
"               y.44..4.4c        44=######4m M4.######=               ",
"               4...==..4m         =########=  4#######=               ",
"               y.=..=o+4b          4.######4m 4#######=               ",
"               4..4..oo4c          74.#######y########=               ",
"               y.=4.=..4c           4#################=               ",
"               4...=.4o4c           y4################=               ",
"               4.....=+4c            =4.##############=               ",
"               4.44.=oo4c             4.##############=               ",
"               4.#####+4p             a=4##.##########=               ",
"               y.#####.4p              4.##4##########=               ",
"               4.#####44c               4.@@##########=               ",
"               y.#####.4c               p=@###########=               ",
"               4.#####.=c                4..##########=               ",
"               y.#####+4c                c@4##########=               ",
"               4.#####.4e                 ==##########=               ",
"               y.#####=4c                  4+#########4               ",
"               4.##4..#4c                  y4.####=.#.4               ",
"               y##@@.4#4c                   =#+.##+=##4               ",
"               cyyyy4p4yM                    yycyy4y4yy               ",
"                                                                      ",
"                                                                      ",
"                                                                      ",
"                                                                      ",
"                                                                      ",
"                                                                      ",
"                                                                      ",
"                                                                      ",
"                                                                      ",
"                                                                      ",
"                                                                      "
};
