/* XPM */
static char *o1680496825[] = {
/* columns rows colors chars-per-pixel */
"70 70 109 2 ",
"   c None",
".  c #FFFFFF",
"X  c #FFFFFF",
"o  c #FFFFFF",
"O  c #FFFFFF",
"+  c #FFFFFF",
"@  c #FFFFFF",
"#  c #FFFFFF",
"$  c #FFFFFF",
"%  c #FFFFFF",
"&  c #FFFFFF",
"*  c #FFFFFF",
"=  c #FFFFFF",
"-  c #FFFFFF",
";  c #FFFFFF",
":  c #FFFFFF",
">  c #FFFFFF",
",  c #FFFFFF",
"<  c #FFFFFF",
"1  c #FFFFFF",
"2  c #FFFFFF",
"3  c #FFFFFF",
"4  c #FFFFFF",
"5  c #FFFFFF",
"6  c #FFFFFF",
"7  c #FFFFFF",
"8  c #FFFFFF",
"9  c #FFFFFF",
"0  c #FFFFFF",
"q  c #FFFFFF",
"w  c #FFFFFF",
"e  c #FFFFFF",
"r  c #FFFFFF",
"t  c #FFFFFF",
"y  c #FFFFFF",
"u  c #FFFFFF",
"i  c #FFFFFF",
"p  c #FFFFFF",
"a  c #FFFFFF",
"s  c #FFFFFF",
"d  c #FFFFFF",
"f  c #FFFFFF",
"g  c #FFFFFF",
"h  c #FFFFFF",
"j  c #FFFFFF",
"k  c #FFFFFF",
"l  c #FFFFFF",
"z  c #FFFFFF",
"x  c #FFFFFF",
"c  c #FFFFFF",
"v  c #FFFFFF",
"b  c #FFFFFF",
"n  c #FFFFFF",
"m  c #FFFFFF",
"M  c #FFFFFF",
"N  c #FFFFFF",
"B  c #FFFFFF",
"V  c #FFFFFF",
"C  c #FFFFFF",
"Z  c #FFFFFF",
"A  c #FFFFFF",
"S  c #FFFFFF",
"D  c #FFFFFF",
"F  c #FFFFFF",
"G  c #FFFFFF",
"H  c #FFFFFF",
"J  c #FFFFFF",
"K  c #FFFFFF",
"L  c #FFFFFF",
"P  c #FFFFFF",
"I  c #FFFFFF",
"U  c #FFFFFF",
"Y  c #FFFFFF",
"T  c #FFFFFF",
"R  c #FFFFFF",
"E  c #FFFFFF",
"W  c #FFFFFF",
"Q  c #FFFFFF",
"!  c #FFFFFF",
"~  c #FFFFFF",
"^  c #FFFFFF",
"/  c #FFFFFF",
"(  c #FFFFFF",
")  c #FFFFFF",
"_  c #FFFFFF",
"`  c #FFFFFF",
"'  c #FFFFFF",
"]  c #FFFFFF",
"[  c #FFFFFF",
"{  c #FFFFFF",
"}  c #FFFFFF",
"|  c #FFFFFF",
" . c #FFFFFF",
".. c #FFFFFF",
"X. c #FFFFFF",
"o. c #FFFFFF",
"O. c #FFFFFF",
"+. c #FFFFFF",
"@. c #FFFFFF",
"#. c #FFFFFF",
"$. c #FFFFFF",
"%. c #FFFFFF",
"&. c #FFFFFF",
"*. c #FFFFFF",
"=. c #FFFFFF",
"-. c #FFFFFF",
";. c #FFFFFF",
":. c #FFFFFF",
">. c #FFFFFF",
/* pixels */
"                                                                                                                                            ",
"                                                                                                                                            ",
"                                                                                                                                            ",
"                                                                                                                                            ",
"                                                                                                                                            ",
"                                                                                                                                            ",
"                                                                                                                                            ",
"                                                                                                                                            ",
"                                                                                                                                            ",
"                                                                                                                                            ",
"                                                          L z s w < w < < r r z [                                                           ",
"                                                    ~ s w < : - - % - - % - - - < w s [                                                     ",
"                                                B < * % % > - - - - - - - - - - < % % % < L                                                 ",
"                                            L < % : - > - - - - - - - - - - - - - - - : % % < ~                                             ",
"                                          z % - - - - - - - - - - - - - - - - - - - - - % - - - s                                           ",
"                                      -.< % - - - - - - - - - - - - - - - - - - - - - - - - - - % < :.                                      ",
"                                    :.- - - - - - - - - - - % % - : : : - % - - - - - - - - - - % % < %.                                    ",
"                                  >.> - - - - - - - - - - - % X % % : : - % % - - - - - - - - - - - % w                                     ",
"                                  w % - - - - - - - % % - % w B L %...X...K z w X - - - - - - - - - - % w                                   ",
"                                B % - - - - - - - - - % w ..                    [ < % - - - - - - - - - % B                                 ",
"                              ..- - - - - - - - - : % K                             z % - - - - - - - - - - L                               ",
"                              w - - - - - - - - - - [                                 L - - - - - - - - - - w                               ",
"                            L - - - - - - - - - % L                                     B % - > - - - - - : : ~                             ",
"                            w - - - - - - - - - z                                         w - < - - - - - - - w                             ",
"                          %.< > - - - - - - : >                                           *.< < - - - - - - : <                             ",
"                          B % - - - - - - - % B                                             s > - - - - - - - % K                           ",
"                          w - - - - - - - - <                                               ~ < : - - - - - - % w                           ",
"                          < - - - - - - - % s                                                 < % - - - - - - - <                           ",
"                        ..% - - - - - - - X K                                                 s - - - - - - - - > ~                         ",
"                        B % - - - - - - : : :.                                                B > : - - - - - - - K                         ",
"                        s % - - - - - - - <                                                     < % - - - - - - % s                         ",
"                        w % - - - - - - % w                                                     w - - - - - - > % r                         ",
"                        w % - - - - - - % s                                                     < - - - - - - - % <                         ",
"                        w % - - - - - - % s                                                     s - - - - - - - - w                         ",
"                        > - - - - - - - % s                                                     u % - - - - - - % <                         ",
"                        < - - - - - % % % B                                                     s % - - - - - - % w                         ",
"                        < : : - - - - - % r                                                     s % - - - - - - % w                         ",
"                        w - % - - - - - - u                                                     < % - - - - - - % w                         ",
"                        < - - - - - - - % <                                                     < % % - - - - - % >                         ",
"                        w - - - - - - - : <                                                     w : - - - - - - - r                         ",
"                        s - - - - - - - > <                                                   L < : - - - - - - > z                         ",
"                        z < - - - - - - - - B                                                 s : - - - - - - : - K                         ",
"                          w > - - - - - - % w                                                 w % % - - - - - * <                           ",
"                          < - - - - - - - : <                                               [ < - > - - - - - - w                           ",
"                          w : - - - - - - - % B                                             z - - - - - - - - : z                           ",
"                          z < > - - - - - - - <                                           -.: - - - - - - - > < L                           ",
"                            < - - - - - - - - % z                                         s % - - - - - - - % r                             ",
"                            z : - - - - - - - - % [                                     L % - - - - - - > > $ ~                             ",
"                              < % - - - - - - - - % [                                 ~ % : - - - - - - : % w                               ",
"                              K < < - - - - - - - < % B                             B % - - - - - - - - < < [                               ",
"                                r - - - - - - - - - < % < ..                    L w % - - - - - - - - - * s                                 ",
"                                  < % - - - - - - - - % - - < s B ..~ ~ ..B z < % % - - - - - - - - - - w                                   ",
"                                  [ < < - - - - - - - - - - % % - - < < - % % % - - - - - - - - - - : <                                     ",
"                                    ~ < - - - - - - - - - - - - - - : : : - - - - - - - - - - - - % < ..                                    ",
"                                      W < - - - - - - - - - - - - - - - - - - - - - - - - - : : % < *.                                      ",
"                                          w % < - - - - - - - - - - - - - - - - - - - - - - - - w                                           ",
"                                            L < % < : % - - - - - - - - - - - - : * < - % % w L                                             ",
"                                                B < - % * : - - - - - - - - - - < : % % < B                                                 ",
"                                                    L s < < : % - - % - % - - - : < s L                                                     ",
"                                                          X.L s s r w < w r z B %.                                                          ",
"                                                                                                                                            ",
"                                                                                                                                            ",
"                                                                                                                                            ",
"                                                                                                                                            ",
"                                                                                                                                            ",
"                                                                                                                                            ",
"                                                                                                                                            ",
"                                                                                                                                            ",
"                                                                                                                                            ",
"                                                                                                                                            "
};
