/* XPM */
static char *p1680496825[] = {
/* columns rows colors chars-per-pixel */
"70 70 66 1 ",
"  c None",
". c #FFFFFF",
"X c #FFFFFF",
"o c #FFFFFF",
"O c #FFFFFF",
"+ c #FFFFFF",
"@ c #FFFFFF",
"# c #FFFFFF",
"$ c #FFFFFF",
"% c #FFFFFF",
"& c #FFFFFF",
"* c #FFFFFF",
"= c #FFFFFF",
"- c #FFFFFF",
"; c #FFFFFF",
": c #FFFFFF",
"> c #FFFFFF",
", c #FFFFFF",
"< c #FFFFFF",
"1 c #FFFFFF",
"2 c #FFFFFF",
"3 c #FFFFFF",
"4 c #FFFFFF",
"5 c #FFFFFF",
"6 c #FFFFFF",
"7 c #FFFFFF",
"8 c #FFFFFF",
"9 c #FFFFFF",
"0 c #FFFFFF",
"q c #FFFFFF",
"w c #FFFFFF",
"e c #FFFFFF",
"r c #FFFFFF",
"t c #FFFFFF",
"y c #FFFFFF",
"u c #FFFFFF",
"i c #FFFFFF",
"p c #FFFFFF",
"a c #FFFFFF",
"s c #FFFFFF",
"d c #FFFFFF",
"f c #FFFFFF",
"g c #FFFFFF",
"h c #FFFFFF",
"j c #FFFFFF",
"k c #FFFFFF",
"l c #FFFFFF",
"z c #FFFFFF",
"x c #FFFFFF",
"c c #FFFFFF",
"v c #FFFFFF",
"b c #FFFFFF",
"n c #FFFFFF",
"m c #FFFFFF",
"M c #FFFFFF",
"N c #FFFFFF",
"B c #FFFFFF",
"V c #FFFFFF",
"C c #FFFFFF",
"Z c #FFFFFF",
"A c #FFFFFF",
"S c #FFFFFF",
"D c #FFFFFF",
"F c #FFFFFF",
"G c #FFFFFF",
"H c #FFFFFF",
/* pixels */
"                                                                      ",
"                                                                      ",
"                                                                      ",
"                                                                      ",
"                                                                      ",
"                                                                      ",
"                                                                      ",
"                                                                      ",
"                                                                      ",
"                                                                      ",
"                                                                      ",
"                 GjujfjjBjjjfjjwffujujw>fdA                           ",
"                 >>=>>>%==o=2222%>>>>>>>>>>>>jG                       ",
"                 8u>o%o%%%o%o%oo%o%o%o%o==%oo%>>B                     ",
"                 >>o%o%o%o%o%o%oo%o%o%o%%o%o%o%o>>                    ",
"                 >>%o%o%o%o%o%o%%o%o%o%oo%o%o%o%>>>                   ",
"                 >>=%o%o%o%o%o%oo%o%%o->%o%oo%o%>=o>                  ",
"                 >>=%%o%o%o%o%o%%o%%ooo>=%o%%o%o%%=%8                 ",
"                 >>=%o%o%o%=2>==%==2=>>>>++%o%o%%o%o>G                ",
"                 >>>o%o%oo2j           b8>>o%o%oo%o%>>                ",
"                 8>%%o%oo%=j              f2o%o%%o%o%>                ",
"                 >>=o%o%%==j                2%%oo%o%2>>               ",
"                 >>=%o%o%%=j                 >oo%o%oo%%               ",
"                 >>=o%o%===B                 =%%o%o%oo>               ",
"                 >>=o%o%o==j                 w>=%o%o==8               ",
"                 >>=%o%o%%=j                 M%=o%o%o>>               ",
"                 >8=o%o%%==j                 f>o%o%o%o>u              ",
"                 >=%%o%o%=>j                 G=%o%o%oo>               ",
"                 >==%%o%%%>j                 j%=%o%ooo>               ",
"                 >8%%%%oo==j                 >%oo%o%%o>               ",
"                 2>=o%o%%==j                 >o%%o%o>+>               ",
"                 %>=%o%oo%>j                >=o%o%o%>>8               ",
"                 %>%o%o%o%>B               >>%o%o%o%%>A               ",
"                 =>=%o%o%=>j            f>>>%o%o%o%oo>                ",
"                 %>=o%o%o%%o88>>>>>>8>>>>=ooo%o%%oo2>A                ",
"                 %>=%o%o%oooo2oo>%>+%o=>oo%%%o%oo%oof                 ",
"                 >>=o%o%o%o%o%o%%o%o:o%o%o%o%o=+%o=>                  ",
"                 >>=%o%o%o%o%o%oo%o%o%o%o%o%o%o>o%8                   ",
"                 8>=o%o%o%o%o%oo%o%o%o%o%o%o%o>>>>                    ",
"                 8>=%o%o%o%o%o%-o%o%o%o%o=ooo%>>j                     ",
"                 8>=o%o%o%oo222->>>>>>>>>>>u>8B                       ",
"                 8>=%o%o%o%2>-22>:::-=o%>>u                           ",
"                 >>>o%o%%=>B                                          ",
"                 >>>%o%o=>>j                                          ",
"                 >>%o%o%%=%A                                          ",
"                 >>o%o%oo%=j                                          ",
"                 8>=o%o%%=>B                                          ",
"                 8>o%o%o%==B                                          ",
"                 >>=o%o%o==j                                          ",
"                 >u+%o%o%==j                                          ",
"                 >>=o%o%%==B                                          ",
"                 >>=%o%o%=>j                                          ",
"                 >>>o%o%%=>j                                          ",
"                 >>>%o%oo%>B                                          ",
"                 >>%o%o%%%=B                                          ",
"                 >>%%o%oo==j                                          ",
"                 8>=%o-oo2:A                                          ",
"                 f>%o%22%o-F                                          ",
"                 G>>>>>8222H                                          ",
"                                                                      ",
"                                                                      ",
"                                                                      ",
"                                                                      ",
"                                                                      ",
"                                                                      ",
"                                                                      ",
"                                                                      ",
"                                                                      ",
"                                                                      ",
"                                                                      "
};
