/* XPM */
static char *q1680496825[] = {
/* columns rows colors chars-per-pixel */
"70 70 108 2 ",
"   c None",
".  c #FFFFFF",
"X  c #FFFFFF",
"o  c #FFFFFF",
"O  c #FFFFFF",
"+  c #FFFFFF",
"@  c #FFFFFF",
"#  c #FFFFFF",
"$  c #FFFFFF",
"%  c #FFFFFF",
"&  c #FFFFFF",
"*  c #FFFFFF",
"=  c #FFFFFF",
"-  c #FFFFFF",
";  c #FFFFFF",
":  c #FFFFFF",
">  c #FFFFFF",
",  c #FFFFFF",
"<  c #FFFFFF",
"1  c #FFFFFF",
"2  c #FFFFFF",
"3  c #FFFFFF",
"4  c #FFFFFF",
"5  c #FFFFFF",
"6  c #FFFFFF",
"7  c #FFFFFF",
"8  c #FFFFFF",
"9  c #FFFFFF",
"0  c #FFFFFF",
"q  c #FFFFFF",
"w  c #FFFFFF",
"e  c #FFFFFF",
"r  c #FFFFFF",
"t  c #FFFFFF",
"y  c #FFFFFF",
"u  c #FFFFFF",
"i  c #FFFFFF",
"p  c #FFFFFF",
"a  c #FFFFFF",
"s  c #FFFFFF",
"d  c #FFFFFF",
"f  c #FFFFFF",
"g  c #FFFFFF",
"h  c #FFFFFF",
"j  c #FFFFFF",
"k  c #FFFFFF",
"l  c #FFFFFF",
"z  c #FFFFFF",
"x  c #FFFFFF",
"c  c #FFFFFF",
"v  c #FFFFFF",
"b  c #FFFFFF",
"n  c #FFFFFF",
"m  c #FFFFFF",
"M  c #FFFFFF",
"N  c #FFFFFF",
"B  c #FFFFFF",
"V  c #FFFFFF",
"C  c #FFFFFF",
"Z  c #FFFFFF",
"A  c #FFFFFF",
"S  c #FFFFFF",
"D  c #FFFFFF",
"F  c #FFFFFF",
"G  c #FFFFFF",
"H  c #FFFFFF",
"J  c #FFFFFF",
"K  c #FFFFFF",
"L  c #FFFFFF",
"P  c #FFFFFF",
"I  c #FFFFFF",
"U  c #FFFFFF",
"Y  c #FFFFFF",
"T  c #FFFFFF",
"R  c #FFFFFF",
"E  c #FFFFFF",
"W  c #FFFFFF",
"Q  c #FFFFFF",
"!  c #FFFFFF",
"~  c #FFFFFF",
"^  c #FFFFFF",
"/  c #FFFFFF",
"(  c #FFFFFF",
")  c #FFFFFF",
"_  c #FFFFFF",
"`  c #FFFFFF",
"'  c #FFFFFF",
"]  c #FFFFFF",
"[  c #FFFFFF",
"{  c #FFFFFF",
"}  c #FFFFFF",
"|  c #FFFFFF",
" . c #FFFFFF",
".. c #FFFFFF",
"X. c #FFFFFF",
"o. c #FFFFFF",
"O. c #FFFFFF",
"+. c #FFFFFF",
"@. c #FFFFFF",
"#. c #FFFFFF",
"$. c #FFFFFF",
"%. c #FFFFFF",
"&. c #FFFFFF",
"*. c #FFFFFF",
"=. c #FFFFFF",
"-. c #FFFFFF",
";. c #FFFFFF",
":. c #FFFFFF",
/* pixels */
"                                                                                                                                            ",
"                                                                                                                                            ",
"                                                                                                                                            ",
"                                                                                                                                            ",
"                                                                                                                                            ",
"                                                                                                                                            ",
"                                                                                                                                            ",
"                                                                                                                                            ",
"                                                                                                                                            ",
"                                                                                                                                            ",
"                                                                  ] B B                                                                     ",
"                                                        K j 3 3 3 3 3 3 t 3 3 3 j K                                                         ",
"                                                  X.f 3 < ; @ @ 3 3 3 @ 3 @ @ ; 3 3 3 j X.                                                  ",
"                                              O.j < @ < ; ; < @ @ 3 @ 3 ; & ; ; < < & @ 3 f %.                                              ",
"                                            j < @ < ; ; ; ; ; ; 3 @ 3 @ ; ; ; ; & ; ; ; 3 @ 3 K                                             ",
"                                          t @ 3 ; ; ; ; ; ; ; ; @ 3 @ 3 ; ; ; ; ; ; ; ; ; ; ; @ t                                           ",
"                                        t @ @ 3 ; ; ; ; ; ; ; ; < < < < < @ ; & @ 3 @ 3 3 @ < 3 ; 3                                         ",
"                                      3 & < 3 @ ; ; ; ; ; ; ; ; & 3 < < 3 < @ < 3 @ 3 @ @ 3 @ @ ; @ t                                       ",
"                                    f @ @ 3 @ 3 ; ; ; ; ; < 3 j K ` %.X.K ~ j 3 @ & @ 3 3 @ @ 3 < 3 < 3                                     ",
"                                  H @ 3 3 @ 3 @ ; ; ; ; 3 T                     K 3 @ 3 @ 3 3 @ ; 3 3 3 B                                   ",
"                                O.3 ; ; @ 3 @ 3 ; ; ; j                             t @ @ 3 @ 3 ; ; ; @ 3                                   ",
"                                t @ ; ; 3 @ 3 @ ; ; j                                 u @ 3 3 @ ; ; ; ; < j                                 ",
"                              ] 3 3 ; ; ; ; @ 3 ; f                                     t @ @ < ; ; ; ; < 3                                 ",
"                              f @ < ; ; ; ; & @ 3                                       ] 3 < & ; ; ; ; & < j                               ",
"                              t & < @ 3 ; ; ; ; T                                         j < < @ 3 @ 3 1 @ t                               ",
"                            ` 3 < @ 3 @ ; ; ; 3                                             3 & 3 @ 3 @ 2 3 3 K                             ",
"                            j @ @ 3 @ 3 ; ; ; j                                             3 < @ 3 @ 3 @ 1 < j                             ",
"                            3 @ 3 @ 3 @ ; < < `                                             j t 3 @ 3 @ 3 @ < t                             ",
"                            3 < @ 3 @ 3 @ & 3                                                 3 & @ < @ ; ; @ 3                             ",
"                          ` 3 < 3 @ 3 @ ; @ t                                                 t @ < @ 3 ; ; & 3                             ",
"                          ` @ < @ 3 @ 3 ; @ j                                                 3 & @ 3 @ ; ; 3 3 B                           ",
"                          ] @ ; 3 @ 3 @ ; @ K                                                 3 @ 3 @ 3 & 3 3 3 T                           ",
"                          K @ ; ; ; ; ; ; ; H                                                 f @ 1 @ 3 ; ; < 3 K                           ",
"                          j ; ; ; ; ; ; ; < B                                                 B @ @ 3 @ ; ; < 3 j                           ",
"                          B ; ; ; ; ; ; ; ; K                                                 j @ 3 @ 3 ; ; < 3 j                           ",
"                          K ; ; ; ; ; ; ; ; j                                                 u @ @ 3 @ & < < 3 K                           ",
"                          K 3 ; ; ; ; ; 3 @ j                                                 u < @ @ 3 @ 3 3 3 B                           ",
"                          ` 3 < ; ; ; ; @ < t                                                 t @ < 3 @ 3 @ < 3                             ",
"                            3 ; ; ; ; ; @ @ 3                                                 3 & < @ 3 @ 3 @ 3                             ",
"                            3 & ; ; ; ; 3 < 3                                               K 3 & @ 3 @ 3 @ 2 1                             ",
"                            3 3 ; ; ; ; ; ; < H                             %.j             f ; ; ; ; ; 3 @ 2 f                             ",
"                            e < ; ; ; ; ; ; ; 3                           ;.< @ u           3 1 ; ; ; ; @ < 3 j                             ",
"                              e ; ; ; ; 3 @ 3 ; %.                      ;.3 ; ; @ <       ` ; < ; ; ; ; 3 @ 3                               ",
"                              < ; ; ; ; @ < @ @ j                     :.3 @ ; ; & < t     3 @ ; ; ; ; ; ; & t                               ",
"                              u 3 & 3 @ 3 @ 3 @ @ `                   H @ ; ; ; ; ; @ 3 3 ; ; ; ; ; ; ; 3 3 `                               ",
"                                3 < @ 3 @ 3 @ 3 3 @ *.                  K < ; 1 ; ; < @ @ ; ; ; ; ; ; ; < 3                                 ",
"                                t 3 3 @ 3 @ 3 @ ; ; & %.                  B 3 3 ; ; ; ; ; ; ; ; ; ; ; ; 3 ]                                 ",
"                                  3 @ 3 @ 3 @ 3 ; ; < @ K                   K 3 ; ; ; ; ; ; ; ; ; ; ; ; f                                   ",
"                                    3 3 3 3 3 @ 3 @ 3 < @ 3 H ]             K 3 3 @ 3 @ 3 @ 3 @ ; ; @ 3                                     ",
"                                    j 3 ; ; @ 3 @ 3 3 @ @ & @ & 3 u j j f f 3 @ @ 3 @ 3 @ 3 @ 3 ; ; 3                                       ",
"                                      f 3 3 ; @ @ 3 @ 3 @ 3 @ < < @ @ @ @ @ 3 < 3 @ 3 @ 3 @ 3 @ < @ 3                                       ",
"                                        j 3 @ < 3 @ 3 @ 3 @ 3 3 @ < @ 3 @ & @ 3 @ 3 @ 3 @ 3 @ 3 @ < < t                                     ",
"                                          K 3 2 @ 3 & ; ; ; < @ 3 @ 3 @ 3 @ 3 @ 3 @ 3 @ 1 @ 3 @ 3 @ ; @ 3                                   ",
"                                              f 3 @ & < ; ; & < @ 3 @ 3 @ 3 @ 3 @ 3 3 @ 1 3 @ 3 @ 3 ; ; ; t *.                              ",
"                                                  t 3 < ; < 3 3 3 @ 3 @ < @ 3 < & 3 < 3 j   f @ 3 ; ; ; < @ 3 &.                            ",
"                                                      H 3 3 3 3 & < & 3 & < 3 3 3 j K         H 3 & ; ; @ 3 @ j                             ",
"                                                              K H m f 3 K K K                   H 3 3 @ 3 < t                               ",
"                                                                                                  ] 3 < @ 3                                 ",
"                                                                                                    O.< 3                                   ",
"                                                                                                      %.*.                                  ",
"                                                                                                                                            ",
"                                                                                                                                            ",
"                                                                                                                                            ",
"                                                                                                                                            ",
"                                                                                                                                            ",
"                                                                                                                                            ",
"                                                                                                                                            ",
"                                                                                                                                            ",
"                                                                                                                                            ",
"                                                                                                                                            "
};
