/* XPM */
static char *r1680496826[] = {
/* columns rows colors chars-per-pixel */
"70 70 112 2 ",
"   c None",
".  c #FFFFFF",
"X  c #FFFFFF",
"o  c #FFFFFF",
"O  c #FFFFFF",
"+  c #FFFFFF",
"@  c #FFFFFF",
"#  c #FFFFFF",
"$  c #FFFFFF",
"%  c #FFFFFF",
"&  c #FFFFFF",
"*  c #FFFFFF",
"=  c #FFFFFF",
"-  c #FFFFFF",
";  c #FFFFFF",
":  c #FFFFFF",
">  c #FFFFFF",
",  c #FFFFFF",
"<  c #FFFFFF",
"1  c #FFFFFF",
"2  c #FFFFFF",
"3  c #FFFFFF",
"4  c #FFFFFF",
"5  c #FFFFFF",
"6  c #FFFFFF",
"7  c #FFFFFF",
"8  c #FFFFFF",
"9  c #FFFFFF",
"0  c #FFFFFF",
"q  c #FFFFFF",
"w  c #FFFFFF",
"e  c #FFFFFF",
"r  c #FFFFFF",
"t  c #FFFFFF",
"y  c #FFFFFF",
"u  c #FFFFFF",
"i  c #FFFFFF",
"p  c #FFFFFF",
"a  c #FFFFFF",
"s  c #FFFFFF",
"d  c #FFFFFF",
"f  c #FFFFFF",
"g  c #FFFFFF",
"h  c #FFFFFF",
"j  c #FFFFFF",
"k  c #FFFFFF",
"l  c #FFFFFF",
"z  c #FFFFFF",
"x  c #FFFFFF",
"c  c #FFFFFF",
"v  c #FFFFFF",
"b  c #FFFFFF",
"n  c #FFFFFF",
"m  c #FFFFFF",
"M  c #FFFFFF",
"N  c #FFFFFF",
"B  c #FFFFFF",
"V  c #FFFFFF",
"C  c #FFFFFF",
"Z  c #FFFFFF",
"A  c #FFFFFF",
"S  c #FFFFFF",
"D  c #FFFFFF",
"F  c #FFFFFF",
"G  c #FFFFFF",
"H  c #FFFFFF",
"J  c #FFFFFF",
"K  c #FFFFFF",
"L  c #FFFFFF",
"P  c #FFFFFF",
"I  c #FFFFFF",
"U  c #FFFFFF",
"Y  c #FFFFFF",
"T  c #FFFFFF",
"R  c #FFFFFF",
"E  c #FFFFFF",
"W  c #FFFFFF",
"Q  c #FFFFFF",
"!  c #FFFFFF",
"~  c #FFFFFF",
"^  c #FFFFFF",
"/  c #FFFFFF",
"(  c #FFFFFF",
")  c #FFFFFF",
"_  c #FFFFFF",
"`  c #FFFFFF",
"'  c #FFFFFF",
"]  c #FFFFFF",
"[  c #FFFFFF",
"{  c #FFFFFF",
"}  c #FFFFFF",
"|  c #FFFFFF",
" . c #FFFFFF",
".. c #FFFFFF",
"X. c #FFFFFF",
"o. c #FFFFFF",
"O. c #FFFFFF",
"+. c #FFFFFF",
"@. c #FFFFFF",
"#. c #FFFFFF",
"$. c #FFFFFF",
"%. c #FFFFFF",
"&. c #FFFFFF",
"*. c #FFFFFF",
"=. c #FFFFFF",
"-. c #FFFFFF",
";. c #FFFFFF",
":. c #FFFFFF",
">. c #FFFFFF",
",. c #FFFFFF",
"<. c #FFFFFF",
"1. c #FFFFFF",
/* pixels */
"                                                                                                                                            ",
"                                                                                                                                            ",
"                                                                                                                                            ",
"                                                                                                                                            ",
"                                                                                                                                            ",
"                                                                                                                                            ",
"                                                                                                                                            ",
"                                                                                                                                            ",
"                                                                                                                                            ",
"                                                                                                                                            ",
"                                                                                                                                            ",
"                              -.z E J D J J J J J D J J z J z z B c c c z D z z c k D _ <.                                                  ",
"                              c . : # : 1 . 1 . # : # : 1 : # # # 1 # # 1 # # : : : : : : a W 1.                                            ",
"                              D : 1 : : 1 1 1 1 1 # # 1 . 1 1 1 ; ; , ; 1 1 1 1 : : 1 > : # . : c                                           ",
"                              D : 1 1 . . 1 1 1 1 1 1 & # 1 1 1 ; , ; , # # 1 1 : : : : : : : 1 # 1 *.                                      ",
"                              c . 1 1 1 1 1 . 1 1 . 1 1 1 1 # # , ; , ; 1 1 1 . : : : : : : : : : : : #.                                    ",
"                              D # : : : : : : : # 1 1 1 # 1 1 1 : : : > : 1 1 1 : : : : : : : : : : : : >.                                  ",
"                              P # : : : : : : : 1 1 . 1 1 . # : # : # : # # > 1 : : : : : : : : : : : # u                                   ",
"                              P # : : : : : : : 1 # i 1 9 9 9 9 9 9 9 9 9 9 1 1 : # : : : : : : : : : : # W                                 ",
"                              P # : : : : : : : > J                             W h : # : : : : : : : : # a                                 ",
"                              c : : : : : : : 1 1 E                                 +.1 : : : : : : : : 1 : <.                              ",
"                              P : : : : : : : : ; ~                                   #.: : : : : : : : : # W                               ",
"                              c - : : : : : : : ; {                                     u : : : : : : : : . z                               ",
"                              P - : : : : : : : 1 {                                     W > : : : : : : : : u                               ",
"                              c O : : : : : : < : _                                       1 1 : : : : : : : i                               ",
"                              P > > : : : : : < : #.                                      9 # : : : : : : # i                               ",
"                              c O : : : : : : < : {                                       i > : : : : : : # a                               ",
"                              c > : : : : : : < : #.                                      1 : : : : : : : # E                               ",
"                              c % > : : : : : > : {                                     #.: : : : : : : 1 : #.                              ",
"                              c # : : : : : : > 1 o.                                    a # : : : : : : # a                                 ",
"                              c : : : : : : : > ; {                                   >.> > : : : : : : # c                                 ",
"                              c # : : : : : : > ; o.                                *.1 : > : : : : : : 1                                   ",
"                              c 1 . 1 1 . 1 1 . # _                             _ a 1 : : : : : : : : # {                                   ",
"                              k # 1 1 . 1 1 1 1 1 1 a u a a u u a 9 9 9 a a i i : : : : : : : : : : # _                                     ",
"                              c 1 1 1 1 1 1 1 1 1 # . # # # . 1 # : # : # : # # : : : : : : : : > 1 _                                       ",
"                              c # # 1 1 . 1 1 . 1 1 1 1 # 1 1 1 : : : : : : : : : : : : : : : : u                                           ",
"                              k : & 1 : 1 . 1 1 # # 1 & # 1 1 & : : : : : : : : : : : : : : & z                                             ",
"                              P # 1 : : 1 1 1 1 1 1 1 1 1 1 # 1 : : : : : : : : : : : : : 1 1 1 1 J                                         ",
"                              c # : : : . 1 1 . & 1 . 1 : # # > # : > : : : : : : : : : : : 1 1 1 ; c                                       ",
"                              c : : : : 1 1 1 1 1 1 9 1 u 1 1 1 1 1 9 1 1 9 1 : : : : : : : . 1 1 1 # c                                     ",
"                              c # : : : : : : : # E                           E h # : 1 1 # 1 1 : 1 1 . *.                                  ",
"                              c : : : : : : : : ; {                               { 1 # 1 # 1 # : 1 1 # u                                   ",
"                              c # : : : : : : : ; ~                                 *.1 1 1 ; , : : : 1 # *.                                ",
"                              c : : : : : : : : ; {                                   J # ; , ; : : : 1 # J                                 ",
"                              k : : : : : : : : , {                                     1 1 ; , : : : : # g                                 ",
"                              c : : : : : : : < ; _                                     a # , ; : : : : # a                                 ",
"                              k : : : : : : : < 1 _                                     J # 1 ; : : : : = 1                                 ",
"                              h - : : : : : : < # {                                     _ # 1 ; : : : : 1 1                                 ",
"                              k : : : : : : : > 1 {                                     >.1 : : : : : : 1 > *.                              ",
"                              k : : : : : : : > : _                                       1 : : : : : : > : #.                              ",
"                              k > : : : : : : > # _                                       9 : : : : : : : : {                               ",
"                              k : : : : : : : > : {                                       i # : : : : : 1 # {                               ",
"                              h : : : : : : 1 > : {                                       a # : : : : : : . E                               ",
"                              k # : : : : : : : # _                                       a # : : : : : 1 # J                               ",
"                              z : : : : : : ; 1 1 _                                       z # : : : : : 1 : g                               ",
"                              k # : : : : : ; 1 # #.                                      c : : : : : : : . u                               ",
"                              D # 1 ; 1 1 ; ; 1 , {                                       W : 1 : : : : : : 9                               ",
"                              c # # . # . . # 1 # #.                                        : : . : : : # : . *.                            ",
"                              W u a a a g a a u u ,.                                        c u u u u u 9 u 9 J                             ",
"                                                                                                                                            ",
"                                                                                                                                            ",
"                                                                                                                                            ",
"                                                                                                                                            ",
"                                                                                                                                            ",
"                                                                                                                                            ",
"                                                                                                                                            ",
"                                                                                                                                            ",
"                                                                                                                                            ",
"                                                                                                                                            ",
"                                                                                                                                            "
};
