/* XPM */
static char *s1680496826[] = {
/* columns rows colors chars-per-pixel */
"70 70 129 2 ",
"   c None",
".  c #FFFFFF",
"X  c #FFFFFF",
"o  c #FFFFFF",
"O  c #FFFFFF",
"+  c #FFFFFF",
"@  c #FFFFFF",
"#  c #FFFFFF",
"$  c #FFFFFF",
"%  c #FFFFFF",
"&  c #FFFFFF",
"*  c #FFFFFF",
"=  c #FFFFFF",
"-  c #FFFFFF",
";  c #FFFFFF",
":  c #FFFFFF",
">  c #FFFFFF",
",  c #FFFFFF",
"<  c #FFFFFF",
"1  c #FFFFFF",
"2  c #FFFFFF",
"3  c #FFFFFF",
"4  c #FFFFFF",
"5  c #FFFFFF",
"6  c #FFFFFF",
"7  c #FFFFFF",
"8  c #FFFFFF",
"9  c #FFFFFF",
"0  c #FFFFFF",
"q  c #FFFFFF",
"w  c #FFFFFF",
"e  c #FFFFFF",
"r  c #FFFFFF",
"t  c #FFFFFF",
"y  c #FFFFFF",
"u  c #FFFFFF",
"i  c #FFFFFF",
"p  c #FFFFFF",
"a  c #FFFFFF",
"s  c #FFFFFF",
"d  c #FFFFFF",
"f  c #FFFFFF",
"g  c #FFFFFF",
"h  c #FFFFFF",
"j  c #FFFFFF",
"k  c #FFFFFF",
"l  c #FFFFFF",
"z  c #FFFFFF",
"x  c #FFFFFF",
"c  c #FFFFFF",
"v  c #FFFFFF",
"b  c #FFFFFF",
"n  c #FFFFFF",
"m  c #FFFFFF",
"M  c #FFFFFF",
"N  c #FFFFFF",
"B  c #FFFFFF",
"V  c #FFFFFF",
"C  c #FFFFFF",
"Z  c #FFFFFF",
"A  c #FFFFFF",
"S  c #FFFFFF",
"D  c #FFFFFF",
"F  c #FFFFFF",
"G  c #FFFFFF",
"H  c #FFFFFF",
"J  c #FFFFFF",
"K  c #FFFFFF",
"L  c #FFFFFF",
"P  c #FFFFFF",
"I  c #FFFFFF",
"U  c #FFFFFF",
"Y  c #FFFFFF",
"T  c #FFFFFF",
"R  c #FFFFFF",
"E  c #FFFFFF",
"W  c #FFFFFF",
"Q  c #FFFFFF",
"!  c #FFFFFF",
"~  c #FFFFFF",
"^  c #FFFFFF",
"/  c #FFFFFF",
"(  c #FFFFFF",
")  c #FFFFFF",
"_  c #FFFFFF",
"`  c #FFFFFF",
"'  c #FFFFFF",
"]  c #FFFFFF",
"[  c #FFFFFF",
"{  c #FFFFFF",
"}  c #FFFFFF",
"|  c #FFFFFF",
" . c #FFFFFF",
".. c #FFFFFF",
"X. c #FFFFFF",
"o. c #FFFFFF",
"O. c #FFFFFF",
"+. c #FFFFFF",
"@. c #FFFFFF",
"#. c #FFFFFF",
"$. c #FFFFFF",
"%. c #FFFFFF",
"&. c #FFFFFF",
"*. c #FFFFFF",
"=. c #FFFFFF",
"-. c #FFFFFF",
";. c #FFFFFF",
":. c #FFFFFF",
">. c #FFFFFF",
",. c #FFFFFF",
"<. c #FFFFFF",
"1. c #FFFFFF",
"2. c #FFFFFF",
"3. c #FFFFFF",
"4. c #FFFFFF",
"5. c #FFFFFF",
"6. c #FFFFFF",
"7. c #FFFFFF",
"8. c #FFFFFF",
"9. c #FFFFFF",
"0. c #FFFFFF",
"q. c #FFFFFF",
"w. c #FFFFFF",
"e. c #FFFFFF",
"r. c #FFFFFF",
"t. c #FFFFFF",
"y. c #FFFFFF",
"u. c #FFFFFF",
"i. c #FFFFFF",
/* pixels */
"                                                                                                                                            ",
"                                                                                                                                            ",
"                                                                                                                                            ",
"                                                                                                                                            ",
"                                                                                                                                            ",
"                                                                                                                                            ",
"                                                                                                                                            ",
"                                                                                                                                            ",
"                                                                                                                                            ",
"                                                                                                                                            ",
"                                                          W V a s 5 r 5 a a H ~ 8.                                                          ",
"                                                  w.P u 5 > 5 # # 3 # 3 - - # # 5 5 H <.                                                    ",
"                                              t.N > # # 4 < # - 5 3 - 3 # 5 3 < 5 > # # a o.                                                ",
"                                            W # # 3 3 3 3 - 5 3 3 - 3 5 - 3 - 3 # < 5 5 - # s 0.                                            ",
"                                          s # 3 3 - - 3 5 3 3 - - 5 3 # 3 3 - 5 5 5 3 # 3 3 # - o.                                          ",
"                                        a # 5 5 # 3 3 # # 3 - 3 3 # - 3 # 5 3 # 3 # - 3 - 3 - 3 # ~                                         ",
"                                      a # 3 # 3 3 # 3 3 # 3 3 # - # # # # < 3 3 3 - # 3 3 5 - 3 3 # &.                                      ",
"                                    H # 3 3 - 3 - 3 3 - 3 # 5 a c V F V s 5 4 # < 3 5 - - # 3 5 - 3 r                                       ",
"                                  r.< 5 # 3 3 # 3 - - # 5 |                 &.V # # 3 3 3 # 3 # - 3 # J                                     ",
"                                  H # > 5 - 3 5 3 3 X V                         0.5 # - 3 5 - 3 3 3 # r                                     ",
"                                  s # 3 3 # 5 3 5 # a                             i.5 5 - 3 - 3 - 3 3 # ,.                                  ",
"                                0.5 5 5 - 3 3 - 5 # &.                              o.# 3 - 3 # 5 # - - H                                   ",
"                                &.> < # 5 # # 5 5 5                                   5 - 3 3 5 3 - 3 # s                                   ",
"                                ~ # 3 - 3 3 - 3 5 5                                   H X # # # # # # # a                                   ",
"                                V > > > 5 3 - 5 3 5                                   &.s c s s s s s s H                                   ",
"                                ~ > < > # 3 3 # - > P                                                                                       ",
"                                | < < > 3 - - 3 3 5 5 &.                                                                                    ",
"                                  5 > > 5 # 3 5 - # 3 5 H                                                                                   ",
"                                  u # 5 3 - 3 # 3 # - 5 # 5 s  .                                                                            ",
"                                  ~ # 5 - 3 - 3 3 5 3 5 3 < # 3 5 a W 5.                                                                    ",
"                                    s # 3 3 - 5 - 5 3 # # - 3 5 # 3 # 5 a a W                                                               ",
"                                    w.; # 5 3 # 3 # - 3 5 3 # 5 - 3 3 3 - - - 5 r H &.                                                      ",
"                                      <.5 5 5 # 5 # 3 5 3 5 - 3 3 # - 3 # - 3 5 # # > 5 s o.                                                ",
"                                        <.5 # 5 3 3 - # - # 3 5 3 5 3 5 5 3 5 # > > 3 3 # # 5 J                                             ",
"                                            N 5 # - 5 4 3 # 3 # - 5 3 # - 3 3 - > > > > 3 # 3 # 5 5.                                        ",
"                                              8.V 5 5 # < 5 - 4 3 # - 3 3 5 # 3 > > > > 3 3 - 3 3 #  .                                      ",
"                                                    H 5 5 5 < 5 < < - 5 # 3 - 3 > > > > > > > > 3 3 o J                                     ",
"                                                          H s 5 5 5 3 5 5 5 5 # > > > > > > > > - 3 5 # o.                                  ",
"                                                                  V s 5 5 5 # - > > > > > > > > 3 3 - 5 5                                   ",
"                                                                          V a 5 > > > > > > > > # 5 3 # < B                                 ",
"                                                                                V 5 5 5 > > > > # 3 5 # 4 5                                 ",
"                                                                                    N < > > > > 5 - 3 3 5 5 o.                              ",
"                                                                                      H 5 5 5 # 3 - 3 - 5 # W                               ",
"                              &.&.&.&.&.&.&.&. .t.                                      s - 3 3 # 3 - 3 3 # H                               ",
"                              # X # # X # o # . ~                                         5 3 - 5 3 # 5 # 3 s                               ",
"                              r 3 3 3 3 5 5 r # H                                         u # - 3 - - 3 3 > s                               ",
"                              a # - 3 - - 3 - - r                                         s > 3 # 3 3 # < # H                               ",
"                              c # 3 3 # 3 - - - # 5.                                      5 # 5 5 - 3 5 5 # P                               ",
"                               .5 5 5 3 - 3 3 - # 5                                      .# 3 5 3 # 5 3 5 5 2.                              ",
"                                5 5 # 5 5 # 5 # 5 # s                                 t.5 ; - # - 3 3 - # 5                                 ",
"                                J # 3 - 3 # 5 3 # 3 # r 5.                          &.5 # 5 - 3 5 # # 5 3 H                                 ",
"                                  5 - 3 - 3 3 - 3 - 3 - 5 s o.                  ~ a 3 # - 3 3 5 3 3 - 3 5                                   ",
"                                  <.# 5 3 - # 3 3 - 5 3 5 # ; 5 a c V c V a a 5 5 # 5 3 # 5 3 # - 3 3 # o.                                  ",
"                                    W X 5 3 3 - # 3 # 3 3 - 5 # # # # # # 3 # - 5 4 3 - 3 - - 3 - 5 # c                                     ",
"                                      J # 3 3 3 3 3 # - # - 3 3 3 - 3 - 3 # # 3 5 # # 5 5 3 3 3 5 # c                                       ",
"                                         .# # 5 3 - 5 3 5 3 # 5 - 3 - 3 - 3 5 - 3 3 - 3 # 3 - 5 # s                                         ",
"                                          0.s # # 5 > 5 # 3 3 - 3 # - 3 - 3 3 - < # 5 3 3 # # 5  .                                          ",
"                                              2.s 5 # # 5 3 - 3 3 3 3 3 3 # # 3 5 5 # > 5 5 ~                                               ",
"                                                  <.m u 5 5 - # # - # # - # 3 # # 5 a s o.                                                  ",
"                                                           .H s s a r r r a s V W 8.                                                        ",
"                                                                                                                                            ",
"                                                                                                                                            ",
"                                                                                                                                            ",
"                                                                                                                                            ",
"                                                                                                                                            ",
"                                                                                                                                            ",
"                                                                                                                                            ",
"                                                                                                                                            ",
"                                                                                                                                            ",
"                                                                                                                                            "
};
