/* XPM */
static char *t1680496826[] = {
/* columns rows colors chars-per-pixel */
"70 70 61 1 ",
"  c None",
". c #FFFFFF",
"X c #FFFFFF",
"o c #FFFFFF",
"O c #FFFFFF",
"+ c #FFFFFF",
"@ c #FFFFFF",
"# c #FFFFFF",
"$ c #FFFFFF",
"% c #FFFFFF",
"& c #FFFFFF",
"* c #FFFFFF",
"= c #FFFFFF",
"- c #FFFFFF",
"; c #FFFFFF",
": c #FFFFFF",
"> c #FFFFFF",
", c #FFFFFF",
"< c #FFFFFF",
"1 c #FFFFFF",
"2 c #FFFFFF",
"3 c #FFFFFF",
"4 c #FFFFFF",
"5 c #FFFFFF",
"6 c #FFFFFF",
"7 c #FFFFFF",
"8 c #FFFFFF",
"9 c #FFFFFF",
"0 c #FFFFFF",
"q c #FFFFFF",
"w c #FFFFFF",
"e c #FFFFFF",
"r c #FFFFFF",
"t c #FFFFFF",
"y c #FFFFFF",
"u c #FFFFFF",
"i c #FFFFFF",
"p c #FFFFFF",
"a c #FFFFFF",
"s c #FFFFFF",
"d c #FFFFFF",
"f c #FFFFFF",
"g c #FFFFFF",
"h c #FFFFFF",
"j c #FFFFFF",
"k c #FFFFFF",
"l c #FFFFFF",
"z c #FFFFFF",
"x c #FFFFFF",
"c c #FFFFFF",
"v c #FFFFFF",
"b c #FFFFFF",
"n c #FFFFFF",
"m c #FFFFFF",
"M c #FFFFFF",
"N c #FFFFFF",
"B c #FFFFFF",
"V c #FFFFFF",
"C c #FFFFFF",
"Z c #FFFFFF",
"A c #FFFFFF",
/* pixels */
"                                                                      ",
"                                                                      ",
"                                                                      ",
"                                                                      ",
"                                                                      ",
"                                                                      ",
"                                                                      ",
"                                                                      ",
"                                                                      ",
"                                                                      ",
"                                                                      ",
"               AbbbbbbCbbbbmbbbbbCbCbbbbbxCbbbbbbbxkdx                ",
"               x@@@@@&@@2@&@@@@@:@@@&@@@:@@@@&@@@@@&$2                ",
"               m@:&&&&&&@&&&**;&:&;@&&:&:&:&&&:&;&&:&2                ",
"               m@&&@:&@;&@:&****&:@:&&:@&;&;&&:::&:&@2                ",
"               m@&::&::&::&:****:&;&&:&::@:@&:@&@;@::q                ",
"               m@***************:&:&:&:&********;@;&*2                ",
"               x@-**************@;@;@;@&********&:@:*2                ",
"               x.*@*****;*******;&:@;&;;**;;*&**;@@&@*                ",
"               Zttee222ee112e2**@:&;@:;;e115e5eeeetedt                ",
"                              2-;@;&**@e                              ",
"                              2*&:@:**@e                              ",
"                              2@:&;&***t                              ",
"                              2@@;@:***d                              ",
"                              2@;&:@;@@i                              ",
"                              2@@:&;&:&i                              ",
"                              2@;@;@&&@t                              ",
"                              2@&:&:&@@k                              ",
"                              --:&@:&&@t                              ",
"                              2@@:&&&:@i                              ",
"                              2*;&&::&@i                              ",
"                              2*@:@:&&@k                              ",
"                              2*;&:@;@@i                              ",
"                              2*@:&;&:@k                              ",
"                              --;@;@&&oi                              ",
"                              2*&:&:&@@k                              ",
"                              2*:&:&&:@t                              ",
"                              2*@;@::&@x                              ",
"                              2*;&@&&:oi                              ",
"                              2*@::&:&&i                              ",
"                              2@;@;&&:@i                              ",
"                              2@&:@::&@i                              ",
"                              2@:&;&&:&i                              ",
"                              2@@;@:&&@k                              ",
"                              2@;&:@;&oi                              ",
"                              2*@:&;@:@i                              ",
"                              --;@;@;@@k                              ",
"                              2*&:&:&:@i                              ",
"                              2*;@:&:&&i                              ",
"                              2*&:&@&&@i                              ",
"                              2*:@&::&@i                              ",
"                              2*&;:&@:@k                              ",
"                              --:&:@:@@i                              ",
"                              2*@;&;&:@i                              ",
"                              2*;@:@:&&i                              ",
"                              2*&:&;&&@k                              ",
"                              2;:@;&&&@k                              ",
"                              *@&@@@@@oi                              ",
"                              ttqe2eqe2b                              ",
"                                                                      ",
"                                                                      ",
"                                                                      ",
"                                                                      ",
"                                                                      ",
"                                                                      ",
"                                                                      ",
"                                                                      ",
"                                                                      ",
"                                                                      ",
"                                                                      "
};
