/* XPM */
static char *u1680496826[] = {
/* columns rows colors chars-per-pixel */
"70 70 86 1 ",
"  c None",
". c #FFFFFF",
"X c #FFFFFF",
"o c #FFFFFF",
"O c #FFFFFF",
"+ c #FFFFFF",
"@ c #FFFFFF",
"# c #FFFFFF",
"$ c #FFFFFF",
"% c #FFFFFF",
"& c #FFFFFF",
"* c #FFFFFF",
"= c #FFFFFF",
"- c #FFFFFF",
"; c #FFFFFF",
": c #FFFFFF",
"> c #FFFFFF",
", c #FFFFFF",
"< c #FFFFFF",
"1 c #FFFFFF",
"2 c #FFFFFF",
"3 c #FFFFFF",
"4 c #FFFFFF",
"5 c #FFFFFF",
"6 c #FFFFFF",
"7 c #FFFFFF",
"8 c #FFFFFF",
"9 c #FFFFFF",
"0 c #FFFFFF",
"q c #FFFFFF",
"w c #FFFFFF",
"e c #FFFFFF",
"r c #FFFFFF",
"t c #FFFFFF",
"y c #FFFFFF",
"u c #FFFFFF",
"i c #FFFFFF",
"p c #FFFFFF",
"a c #FFFFFF",
"s c #FFFFFF",
"d c #FFFFFF",
"f c #FFFFFF",
"g c #FFFFFF",
"h c #FFFFFF",
"j c #FFFFFF",
"k c #FFFFFF",
"l c #FFFFFF",
"z c #FFFFFF",
"x c #FFFFFF",
"c c #FFFFFF",
"v c #FFFFFF",
"b c #FFFFFF",
"n c #FFFFFF",
"m c #FFFFFF",
"M c #FFFFFF",
"N c #FFFFFF",
"B c #FFFFFF",
"V c #FFFFFF",
"C c #FFFFFF",
"Z c #FFFFFF",
"A c #FFFFFF",
"S c #FFFFFF",
"D c #FFFFFF",
"F c #FFFFFF",
"G c #FFFFFF",
"H c #FFFFFF",
"J c #FFFFFF",
"K c #FFFFFF",
"L c #FFFFFF",
"P c #FFFFFF",
"I c #FFFFFF",
"U c #FFFFFF",
"Y c #FFFFFF",
"T c #FFFFFF",
"R c #FFFFFF",
"E c #FFFFFF",
"W c #FFFFFF",
"Q c #FFFFFF",
"! c #FFFFFF",
"~ c #FFFFFF",
"^ c #FFFFFF",
"/ c #FFFFFF",
"( c #FFFFFF",
") c #FFFFFF",
"_ c #FFFFFF",
"` c #FFFFFF",
/* pixels */
"                                                                      ",
"                                                                      ",
"                                                                      ",
"                                                                      ",
"                                                                      ",
"                                                                      ",
"                                                                      ",
"                                                                      ",
"                                                                      ",
"                                                                      ",
"                                                                      ",
"              I5030=5535)                    i55555555M               ",
"              Z+OOOOOO++/                    5+++++++O5               ",
"              H&=**O++*+)                    5+**+*=++0               ",
"              Z&**=O=**+(                    5++O*+=*+3               ",
"              Z&=O**=+=+/                    5+*==+*++i               ",
"              Z&&&+=**OO~                    5++**O=*+5               ",
"              Z&&&*=O==O~                    5+*O=O*=+0               ",
"              Z&&**+O**O~                    5+==O=*++3               ",
"              Z&&***==OO~                    5++**=O*+0               ",
"              Z&***=**OO~                    5+*O=*O=O3               ",
"              Z&*=OOO==O~                    5+=O*=O*O3               ",
"              Z#*O=*O**O~                    5++==**OO=               ",
"              M&*=O*==++W                    5+**OO==O8               ",
"              M&*O=*=*O+I                    5+=*==O++3               ",
"              M&**=OO*=+/                    5++OO**=*3               ",
"              M&*=*OO=*+W                    5+*=*+=*+3               ",
"              M&*O*=*=O+W                    5+==O*=+O3               ",
"              V#**O=*O=+W                    7OO**O=*+=               ",
"              Z&=O*=*=++W                    =O*O=O*=+8               ",
"              Z&**OOOO=+W                    7O==O=*++5               ",
"              V#**=*=**OW                    5OO**=O*+5               ",
"              i*=OO*+**+W                    3O=**O=++=               ",
"              M***====++W                    5+++=O**+5               ",
"              g5***O*O=+W                    5+*=O=*++5               ",
"              k***=O*=++W                    5++**=O**=               ",
"              i**=*O*+=+~                    =++O=*O=*=               ",
"              k5*O*==+*+W                    =O*O*=O=O5               ",
"              k&**O==*+#W                    3+===****=               ",
"              k5*=O*+*+#U                    3++*OO=O==               ",
"              i&*OO=**O=U                    5+**==O+*5               ",
"              35*=*=O=O*W                    5++OO***++               ",
"              i&+*+O*=*Oi                    5O*=*+=+=*               ",
"              i5+==*OO*=e                    =+*=O*=+*5               ",
"               5+==O==*O5                   i5==**O=+=3               ",
"               5OO***O*+5                   0=+*O=O***i               ",
"               5*OO=*=O==Z                  =+*==O=*=5k               ",
"               ===*=OO**+0                 I=5*+**=O+5                ",
"               05++=*+=*OOs                =OOO*OO=*+=                ",
"                =+*+*=O*=**M              3O=*===**=5Z                ",
"                05*++O===+*+5M          M5+**O*O**OO0                 ",
"                 5++=**O**=++=53MMMiMk2=++=O*==+*===M                 ",
"                 Z55=++*+=*O=*+O+=*+*OO+@+=*+=**O=*5                  ",
"                  i+=*==O*=OO*=O+@*==OO==*=+*=+=*O3                   ",
"                   0***+==**==**+*+==*O**=*+*+=+O0                    ",
"                    M+=+*OO=*OO===+*O*==++*==+*+=                     ",
"                     We+*==++*=+*+*+==*O*+=*+O5M                      ",
"                       Z5=**+**+*=***+*=+++*50`                       ",
"                         Ii3==5++==**=*+55iK                          ",
"                             /Mi0=5=0s0I)                             ",
"                                                                      ",
"                                                                      ",
"                                                                      ",
"                                                                      ",
"                                                                      ",
"                                                                      ",
"                                                                      ",
"                                                                      ",
"                                                                      ",
"                                                                      "
};
