/* XPM */
static char *v1680496826[] = {
/* columns rows colors chars-per-pixel */
"70 70 100 2 ",
"   c None",
".  c #FFFFFF",
"X  c #FFFFFF",
"o  c #FFFFFF",
"O  c #FFFFFF",
"+  c #FFFFFF",
"@  c #FFFFFF",
"#  c #FFFFFF",
"$  c #FFFFFF",
"%  c #FFFFFF",
"&  c #FFFFFF",
"*  c #FFFFFF",
"=  c #FFFFFF",
"-  c #FFFFFF",
";  c #FFFFFF",
":  c #FFFFFF",
">  c #FFFFFF",
",  c #FFFFFF",
"<  c #FFFFFF",
"1  c #FFFFFF",
"2  c #FFFFFF",
"3  c #FFFFFF",
"4  c #FFFFFF",
"5  c #FFFFFF",
"6  c #FFFFFF",
"7  c #FFFFFF",
"8  c #FFFFFF",
"9  c #FFFFFF",
"0  c #FFFFFF",
"q  c #FFFFFF",
"w  c #FFFFFF",
"e  c #FFFFFF",
"r  c #FFFFFF",
"t  c #FFFFFF",
"y  c #FFFFFF",
"u  c #FFFFFF",
"i  c #FFFFFF",
"p  c #FFFFFF",
"a  c #FFFFFF",
"s  c #FFFFFF",
"d  c #FFFFFF",
"f  c #FFFFFF",
"g  c #FFFFFF",
"h  c #FFFFFF",
"j  c #FFFFFF",
"k  c #FFFFFF",
"l  c #FFFFFF",
"z  c #FFFFFF",
"x  c #FFFFFF",
"c  c #FFFFFF",
"v  c #FFFFFF",
"b  c #FFFFFF",
"n  c #FFFFFF",
"m  c #FFFFFF",
"M  c #FFFFFF",
"N  c #FFFFFF",
"B  c #FFFFFF",
"V  c #FFFFFF",
"C  c #FFFFFF",
"Z  c #FFFFFF",
"A  c #FFFFFF",
"S  c #FFFFFF",
"D  c #FFFFFF",
"F  c #FFFFFF",
"G  c #FFFFFF",
"H  c #FFFFFF",
"J  c #FFFFFF",
"K  c #FFFFFF",
"L  c #FFFFFF",
"P  c #FFFFFF",
"I  c #FFFFFF",
"U  c #FFFFFF",
"Y  c #FFFFFF",
"T  c #FFFFFF",
"R  c #FFFFFF",
"E  c #FFFFFF",
"W  c #FFFFFF",
"Q  c #FFFFFF",
"!  c #FFFFFF",
"~  c #FFFFFF",
"^  c #FFFFFF",
"/  c #FFFFFF",
"(  c #FFFFFF",
")  c #FFFFFF",
"_  c #FFFFFF",
"`  c #FFFFFF",
"'  c #FFFFFF",
"]  c #FFFFFF",
"[  c #FFFFFF",
"{  c #FFFFFF",
"}  c #FFFFFF",
"|  c #FFFFFF",
" . c #FFFFFF",
".. c #FFFFFF",
"X. c #FFFFFF",
"o. c #FFFFFF",
"O. c #FFFFFF",
"+. c #FFFFFF",
"@. c #FFFFFF",
"#. c #FFFFFF",
/* pixels */
"                                                                                                                                            ",
"                                                                                                                                            ",
"                                                                                                                                            ",
"                                                                                                                                            ",
"                                                                                                                                            ",
"                                                                                                                                            ",
"                                                                                                                                            ",
"                                                                                                                                            ",
"                                                                                                                                            ",
"                                                                                                                                            ",
"                                                                                                                                            ",
"                            M N M J J L J N K L                                             L J L N N K N M M M #.                          ",
"                            q o o = o o o o > o O.                                        +.& o o o o o o & o ,                             ",
"                            L o , & , & ; ; , o N                                         J > , , : , , & : & h                             ",
"                            } : , , > & ; & = o w                                         e o o , o , & : : , (                             ",
"                              q o > & > & > = , = [                                       , , : , > & > & & q                               ",
"                              z o , o , , o , , o Z                                     M , o > & , , & : o M                               ",
"                              ( , , > & & > > & o s                                     0 o , & > o o > : : R                               ",
"                                w = > , , o o , , , }                                   , & , , , , , , o q                                 ",
"                                s o o , , > & , , o L                                 J & , o > & o > & & z                                 ",
"                                ( , , > & , , & > o s                                 s = , o & > o & , : L                                 ",
"                                  , o & > o o > & & >                                 , o = , , , , , , ,                                   ",
"                                  k o , , , , , , , = L                             R = , = o > & , , o M                                   ",
"                                  ( : , & o > & o : o s                             s o & , , & > o , o (                                   ",
"                                    , : = = = = = = o ,                             , : o , , , = = = ,                                     ",
"                                    k o = = = = = = , , (                         R , , o , o > = = = s                                     ",
"                                    L , , = > & > & : o k                         s ; o , > o & = = , (                                     ",
"                                      , & , o , & ; , o 0                         r o : , & , , = = ,                                       ",
"                                      s o > o , > o & , o '                     ( o , & & , > & = = d                                       ",
"                                      J , : > & , , , , o z                     M o & : > , o , = = (                                       ",
"                                        , ; > , & , , o ; w                     s o , o o , o , : ,                                         ",
"                                        z o o , > o & > , o }                 } o , , > & , > , o d                                         ",
"                                        J , : : , , & , , o M                 Z o , > = = = , , , R                                         ",
"                                          , o & & o > , ; o w                 , o = = = = = , o ,                                           ",
"                                          q o , > o > o & , o }             O., > = = = = = = o s                                           ",
"                                          M : : , , & > & > o M             J o = = = = = = : = L                                           ",
"                                            , & & , , & , & o s             e o = = = = = = = ,                                             ",
"                                            s o > o o > , o , , O.        } , , = = = = = = = s                                             ",
"                                            M , , , , , & > ; o L         N o , = = = = = = , L                                             ",
"                                              , & o > & > & ; o s         s o , = = = = = = ,                                               ",
"                                              , o , ; > o , > : :       @., , > & , , & , = s                                               ",
"                                              M , , ; & & , & , o L     ! o ; & > o o > , , J                                               ",
"                                                , ; , , > , & , o M     M o > & , , , , o ,                                                 ",
"                                                0 o & o o , > o , ,     , , o , & o > & o s                                                 ",
"                                                z , , > o > , o , o [ ' o , o , > o o , , L                                                 ",
"                                                  , ; & , & , > & & , , & & > & , , , = ,                                                   ",
"                                                  , o , , & , & & , , o > & > , & , , o s                                                   ",
"                                                  k , , o > , o : o & > & > o , > o , & L                                                   ",
"                                                    , , > o , > > & o > & , > & & > > ,                                                     ",
"                                                    e o & , , & o , , & > , o , > > o s                                                     ",
"                                                    h & o , , , , , , , o , o , o , , L                                                     ",
"                                                      , , > & o > & o > & , > & ; : ,                                                       ",
"                                                      , : , & > o & > o , & > , & o d                                                       ",
"                                                      s , o , , , , , , , o o , , = (                                                       ",
"                                                      ( , , , o > & & > & > : & : ,                                                         ",
"                                                        , , & : o , , o , , o , o s                                                         ",
"                                                        M o > o , , = = = > & > : (                                                         ",
"                                                        } : o . o o o o o o o o ,                                                           ",
"                                                          M s s s s s s s s s , J                                                           ",
"                                                                                                                                            ",
"                                                                                                                                            ",
"                                                                                                                                            ",
"                                                                                                                                            ",
"                                                                                                                                            ",
"                                                                                                                                            ",
"                                                                                                                                            ",
"                                                                                                                                            ",
"                                                                                                                                            ",
"                                                                                                                                            ",
"                                                                                                                                            "
};
