/* XPM */
static char *w1680496827[] = {
/* columns rows colors chars-per-pixel */
"70 70 172 2 ",
"   c None",
".  c #FFFFFF",
"X  c #FFFFFF",
"o  c #FFFFFF",
"O  c #FFFFFF",
"+  c #FFFFFF",
"@  c #FFFFFF",
"#  c #FFFFFF",
"$  c #FFFFFF",
"%  c #FFFFFF",
"&  c #FFFFFF",
"*  c #FFFFFF",
"=  c #FFFFFF",
"-  c #FFFFFF",
";  c #FFFFFF",
":  c #FFFFFF",
">  c #FFFFFF",
",  c #FFFFFF",
"<  c #FFFFFF",
"1  c #FFFFFF",
"2  c #FFFFFF",
"3  c #FFFFFF",
"4  c #FFFFFF",
"5  c #FFFFFF",
"6  c #FFFFFF",
"7  c #FFFFFF",
"8  c #FFFFFF",
"9  c #FFFFFF",
"0  c #FFFFFF",
"q  c #FFFFFF",
"w  c #FFFFFF",
"e  c #FFFFFF",
"r  c #FFFFFF",
"t  c #FFFFFF",
"y  c #FFFFFF",
"u  c #FFFFFF",
"i  c #FFFFFF",
"p  c #FFFFFF",
"a  c #FFFFFF",
"s  c #FFFFFF",
"d  c #FFFFFF",
"f  c #FFFFFF",
"g  c #FFFFFF",
"h  c #FFFFFF",
"j  c #FFFFFF",
"k  c #FFFFFF",
"l  c #FFFFFF",
"z  c #FFFFFF",
"x  c #FFFFFF",
"c  c #FFFFFF",
"v  c #FFFFFF",
"b  c #FFFFFF",
"n  c #FFFFFF",
"m  c #FFFFFF",
"M  c #FFFFFF",
"N  c #FFFFFF",
"B  c #FFFFFF",
"V  c #FFFFFF",
"C  c #FFFFFF",
"Z  c #FFFFFF",
"A  c #FFFFFF",
"S  c #FFFFFF",
"D  c #FFFFFF",
"F  c #FFFFFF",
"G  c #FFFFFF",
"H  c #FFFFFF",
"J  c #FFFFFF",
"K  c #FFFFFF",
"L  c #FFFFFF",
"P  c #FFFFFF",
"I  c #FFFFFF",
"U  c #FFFFFF",
"Y  c #FFFFFF",
"T  c #FFFFFF",
"R  c #FFFFFF",
"E  c #FFFFFF",
"W  c #FFFFFF",
"Q  c #FFFFFF",
"!  c #FFFFFF",
"~  c #FFFFFF",
"^  c #FFFFFF",
"/  c #FFFFFF",
"(  c #FFFFFF",
")  c #FFFFFF",
"_  c #FFFFFF",
"`  c #FFFFFF",
"'  c #FFFFFF",
"]  c #FFFFFF",
"[  c #FFFFFF",
"{  c #FFFFFF",
"}  c #FFFFFF",
"|  c #FFFFFF",
" . c #FFFFFF",
".. c #FFFFFF",
"X. c #FFFFFF",
"o. c #FFFFFF",
"O. c #FFFFFF",
"+. c #FFFFFF",
"@. c #FFFFFF",
"#. c #FFFFFF",
"$. c #FFFFFF",
"%. c #FFFFFF",
"&. c #FFFFFF",
"*. c #FFFFFF",
"=. c #FFFFFF",
"-. c #FFFFFF",
";. c #FFFFFF",
":. c #FFFFFF",
">. c #FFFFFF",
",. c #FFFFFF",
"<. c #FFFFFF",
"1. c #FFFFFF",
"2. c #FFFFFF",
"3. c #FFFFFF",
"4. c #FFFFFF",
"5. c #FFFFFF",
"6. c #FFFFFF",
"7. c #FFFFFF",
"8. c #FFFFFF",
"9. c #FFFFFF",
"0. c #FFFFFF",
"q. c #FFFFFF",
"w. c #FFFFFF",
"e. c #FFFFFF",
"r. c #FFFFFF",
"t. c #FFFFFF",
"y. c #FFFFFF",
"u. c #FFFFFF",
"i. c #FFFFFF",
"p. c #FFFFFF",
"a. c #FFFFFF",
"s. c #FFFFFF",
"d. c #FFFFFF",
"f. c #FFFFFF",
"g. c #FFFFFF",
"h. c #FFFFFF",
"j. c #FFFFFF",
"k. c #FFFFFF",
"l. c #FFFFFF",
"z. c #FFFFFF",
"x. c #FFFFFF",
"c. c #FFFFFF",
"v. c #FFFFFF",
"b. c #FFFFFF",
"n. c #FFFFFF",
"m. c #FFFFFF",
"M. c #FFFFFF",
"N. c #FFFFFF",
"B. c #FFFFFF",
"V. c #FFFFFF",
"C. c #FFFFFF",
"Z. c #FFFFFF",
"A. c #FFFFFF",
"S. c #FFFFFF",
"D. c #FFFFFF",
"F. c #FFFFFF",
"G. c #FFFFFF",
"H. c #FFFFFF",
"J. c #FFFFFF",
"K. c #FFFFFF",
"L. c #FFFFFF",
"P. c #FFFFFF",
"I. c #FFFFFF",
"U. c #FFFFFF",
"Y. c #FFFFFF",
"T. c #FFFFFF",
"R. c #FFFFFF",
"E. c #FFFFFF",
"W. c #FFFFFF",
"Q. c #FFFFFF",
"!. c #FFFFFF",
"~. c #FFFFFF",
/* pixels */
"                                                                                                                                            ",
"                                                                                                                                            ",
"                                                                                                                                            ",
"                                                                                                                                            ",
"                                                                                                                                            ",
"                                                                                                                                            ",
"                                                                                                                                            ",
"                                                                                                                                            ",
"                                                                                                                                            ",
"                                                                                                                                            ",
"                                                                                                                                            ",
"                      P.P  .` }  .E 9.                        n.P  .}  .` E E.                         .` } } } ` E                         ",
"                      A.$ ; ; $ 4 @ g                         C @ ; ; $ ; . 6.                      T.4 $ $ 4 ; . B                         ",
"                        g 4 0 4 4 0 0                         B 4 4 4 4 0 ; }                       b.; g 4 4 6 $ `                         ",
"                        B ; 4 4 4 6 ; S.                    E.4 6 4 4 4 4 $ C                       6.. 0 4 4 4 ; 6.                        ",
"                        E $ 4 4 9 0 @ 9.                    h.$ 6 4 4 4 4 4 B                       P ; 4 4 4 4 4 S.                        ",
"                        9.; 4 4 4 6 @ }                     6.@ 4 4 4 4 4 0 4 R.                    C ; 4 4 4 4 g                           ",
"                        A.4 6 4 4 4 $ Z                     P @ 4 4 4 4 4 9 ; h.                    g ; 4 4 4 ; B                           ",
"                          g 4 4 4 4 ; B                     C ; 4 4 4 4 4 4 @  .                  P.; 9 4 4 6 $ E                           ",
"                          C $ 4 4 4 0 6 Q.                  0 4 4 4 4 4 4 4 ; F                   h.; 0 4 4 4 $ 6.                          ",
"                          ` $ 6 4 4 0 $ S.                A.@ g 4 4 4 4 9 4 ; B                   %.@ 9 4 4 4 4 B.                          ",
"                          6.; 4 4 0 0 @ 6.                6.@ 0 4 4 4 4 0 ; 9 0                   F @ 4 4 4 ; g                             ",
"                          B.; 4 4 4 4 $ `                 E @ 4 4 4 4 4 9 9 9 ; B.                B ; 4 4 4 ; C                             ",
"                            g 4 4 4 4 $ B                 C ; 4 4 4 4 4 ; 9 9 @ 6.                0 4 4 4 0 @ `                             ",
"                            C ; 4 4 4 4 B                 g ; 4 4 4 4 4 4 4 4 @ `               n.4 4 4 9 9 ; 6.                            ",
"                            E $ 0 4 4 6 0 T.            A.4 0 4 4 4 ; 4 4 4 4 ; S               %.$ 0 4 ; 9 ; H.                            ",
"                            9.$ 4 4 4 g ; 9.            6.@ 0 4 4 ; } g 4 4 4 ; 0               ` . 4 4 0 4 0                               ",
"                            H.6 6 4 4 4 $ %.            P ; 0 4 4 ; !.E ; 4 4 4 4 H.            F ; 4 4 4 ; B                               ",
"                              0 4 4 4 4 $ P             S ; 4 4 4 0   ` 4 4 4 9 $ 6.            g ; 0 4 4 ; P                               ",
"                              B 4 4 4 4 3 C             h ; 4 4 ; B   h.4 4 4 9 $ `           T.8 0 4 4 4 ; %.                              ",
"                              P $ 4 4 4 4 6           H.4 9 4 4 $ }     g 4 4 4 $ C           z.; 0 4 4 0 0 i.                              ",
"                              %.$ 4 4 4 4 3 H.        9.; ; 4 4 $ 6.    B ; 4 4 4 g           %.@ 0 4 4 6 0                                 ",
"                              z.4 9 4 4 9 ; i.        } $ 4 4 4 ; A.    P ; 4 4 6 6 B.        P $ 4 4 4 @ C                                 ",
"                                0 ; 4 4 0 . }         S $ 4 4 4 g       %.$ 4 4 6 ; i.        C ; 4 4 4 ; F                                 ",
"                                C ; 4 4 9 ; C         j 4 4 4 4 B       z.; 6 4 9 ; }         0 4 4 4 4 ;  .                                ",
"                                F ; 4 4 4 ; B       R.6 6 4 4 $ F         6 6 4 6 $ F       B.; 6 4 4 0 4 i.                                ",
"                                } ; 9 9 4 ; 0       9.2 4 4 4 $  .        B ; ; 4 ; B       6.$ 4 4 4 4 0                                   ",
"                                9.9 0 4 4 0 0 n.     .; 4 4 6 4 h.        S ; 4 4 6 0       ` $ 6 4 4 ; C                                   ",
"                                  0 ; 0 ; 9 . %.    F $ 4 4 6 6           ( ; 4 4 4 ; z.    C $ 4 4 4 ; P                                   ",
"                                  B ; 4 9 0 ; `     B ; 4 4 4 g           6.; 4 4 4 ; 6.    B 4 4 4 6 4 }                                   ",
"                                  P @ 4 4 4 $ C     0 0 9 4 4 C           S.6 0 6 4 ; F     0 0 4 4 6 6 h.                                  ",
"                                   .4 4 4 4 4 j   e.0 0 4 4 @ P             0 0 6 4 $ B   h.4 6 4 4 4 0                                     ",
"                                  i.4 4 4 6 6 $ ~.6.$ 4 4 6 4 6.            C ; 4 4 4 6   } ; 4 4 4 ; B                                     ",
"                                    g ; 4 6 6 $ 9.P ; 4 4 0 4 n.            P $ 4 4 6 $ T.F ; 4 4 4 ; E                                     ",
"                                    h ; 4 4 4 4 4 4 4 4 4 ; g               6.$ 4 4 4 ; C 0 4 4 4 6 ; 6.                                    ",
"                                    P ; 4 4 4 4 4 4 4 4 4 ; B               z.4 6 4 4 4 ; 4 4 4 4 6 6 h.                                    ",
"                                     .; 4 4 4 4 4 4 4 4 4 @ F                 g 4 4 4 4 4 4 4 4 4 ; g                                       ",
"                                    n.; 6 4 4 4 4 4 4 4 4 ; 6.                C ; 4 4 4 4 4 4 4 4 ; C                                       ",
"                                      0 6 6 4 4 4 4 4 4 0 4 n.                F $ 4 4 4 4 4 4 4 9 @ `                                       ",
"                                      B ; 4 4 4 4 4 4 4 9 0                   %.; 4 4 4 4 4 4 4 9 ; i.                                      ",
"                                      F @ 4 4 4 4 4 4 4 ; h                   h.; 4 4 4 4 4 4 4 0 6 S.                                      ",
"                                      6.; 9 4 4 4 4 4 4 ; F                     6 4 4 4 4 4 4 4 4 g                                         ",
"                                      n.4 0 4 4 4 4 4 4 ; }                     B 4 4 4 4 4 4 4 ; C                                         ",
"                                        0 ; 4 4 4 4 4 0 ; 9.                    C $ 4 4 4 4 4 4 @ }                                         ",
"                                        C ; 4 4 4 4 4 0 9 S.                    } $ 4 4 4 4 4 4 ; 8.                                        ",
"                                        P @ 4 4 4 4 4 ; g                       i.$ 4 4 4 4 4 4 9 B.                                        ",
"                                        6.@ 9 9 9 9 4 ; S                       H.0 0 4 4 4 4 4 B                                           ",
"                                        z.@ ; ; ; @ ; . `                         0 4 ; ; ; ; @ C                                           ",
"                                          F B B B h C B i.                        ` h C x C C h 6.                                          ",
"                                                                                                                                            ",
"                                                                                                                                            ",
"                                                                                                                                            ",
"                                                                                                                                            ",
"                                                                                                                                            ",
"                                                                                                                                            ",
"                                                                                                                                            ",
"                                                                                                                                            ",
"                                                                                                                                            ",
"                                                                                                                                            ",
"                                                                                                                                            "
};
