/* XPM */
static char *x1680496827[] = {
/* columns rows colors chars-per-pixel */
"70 70 60 1 ",
"  c None",
". c #FFFFFF",
"X c #FFFFFF",
"o c #FFFFFF",
"O c #FFFFFF",
"+ c #FFFFFF",
"@ c #FFFFFF",
"# c #FFFFFF",
"$ c #FFFFFF",
"% c #FFFFFF",
"& c #FFFFFF",
"* c #FFFFFF",
"= c #FFFFFF",
"- c #FFFFFF",
"; c #FFFFFF",
": c #FFFFFF",
"> c #FFFFFF",
", c #FFFFFF",
"< c #FFFFFF",
"1 c #FFFFFF",
"2 c #FFFFFF",
"3 c #FFFFFF",
"4 c #FFFFFF",
"5 c #FFFFFF",
"6 c #FFFFFF",
"7 c #FFFFFF",
"8 c #FFFFFF",
"9 c #FFFFFF",
"0 c #FFFFFF",
"q c #FFFFFF",
"w c #FFFFFF",
"e c #FFFFFF",
"r c #FFFFFF",
"t c #FFFFFF",
"y c #FFFFFF",
"u c #FFFFFF",
"i c #FFFFFF",
"p c #FFFFFF",
"a c #FFFFFF",
"s c #FFFFFF",
"d c #FFFFFF",
"f c #FFFFFF",
"g c #FFFFFF",
"h c #FFFFFF",
"j c #FFFFFF",
"k c #FFFFFF",
"l c #FFFFFF",
"z c #FFFFFF",
"x c #FFFFFF",
"c c #FFFFFF",
"v c #FFFFFF",
"b c #FFFFFF",
"n c #FFFFFF",
"m c #FFFFFF",
"M c #FFFFFF",
"N c #FFFFFF",
"B c #FFFFFF",
"V c #FFFFFF",
"C c #FFFFFF",
"Z c #FFFFFF",
/* pixels */
"                                                                      ",
"                                                                      ",
"                                                                      ",
"                                                                      ",
"                                                                      ",
"                                                                      ",
"                                                                      ",
"                                                                      ",
"                                                                      ",
"                                                                      ",
"                                                                      ",
"              x77X777777xM                   7v77x77777Z              ",
"              f7*777*7#7O7                  f7#>77#7777               ",
"               7>XXXX###=X>                M7X>XX=XXX*x               ",
"                7X>X>X####7x               7X>XXXX>X7>                ",
"                j7XX>X####X7              f=XXX>>>XX7                 ",
"                 7#########77            N7#X>>XXXX7x                 ",
"                  7X#######*7            7##XXXXX>7>                  ",
"                  x7*#########          v77X>XX>>X>                   ",
"                   77*######>7v         7XXX>XX>X77                   ",
"                    #########X7        7XX>XXX>X77                    ",
"                     7#######X77      f7>X>X>XXX7                     ",
"                     77*######77      7XX>XX>X777                     ",
"                      #X########7    7X>XXX>XX>7                      ",
"                       7*OX>XX>**7  M*##>XXX>X7                       ",
"                       >7*XX>XXXXf  *X##XX>XX77                       ",
"                        =X>X>XXXXX7x*###X>=X>7                        ",
"                         7>XXX>>>X>X####X>XX7                         ",
"                         77X=XXX########XX>7x                         ",
"                          #7X>>X########>X*7                          ",
"                           7O>XX########X=7                           ",
"                           >7+X>########*7f                           ",
"                            OXXX########7#                            ",
"                             7>>#########                             ",
"                             7XX########7                             ",
"                            #7>X#######*77                            ",
"                           77>XX#########7                            ",
"                           7##X>##########7                           ",
"                          7##############*77                          ",
"                         f7*###############7                          ",
"                         7##################>                         ",
"                        7##################*77                        ",
"                       M7#XX#####XM##########7                        ",
"                       *XX>>####>7 77#########*                       ",
"                      7#>XXXX>XO7   *O#######*77                      ",
"                     x*>XX>XXX=7f    7X########7                      ",
"                     7O#X>X>>X>>     77O########>                     ",
"                    7###X>XX=O7       #########*77                    ",
"                   f7*#######77        7########X7                    ",
"                   7XX######X7         77#########*                   ",
"                  >X########7           ##########77                  ",
"                 777#####X*77           77########X7                  ",
"                 7#########>             >##########>                 ",
"                7#######X*7               7X#######*>7                ",
"               M>#######77>               77#########7N               ",
"               7########X#                 ##########X7               ",
"              7#########7f                  7*######X>Of              ",
"             N#########77                   >7X########7C             ",
"             f>>7>>777>7                     7>77>7>7>>XM             ",
"                                                                      ",
"                                                                      ",
"                                                                      ",
"                                                                      ",
"                                                                      ",
"                                                                      ",
"                                                                      ",
"                                                                      ",
"                                                                      ",
"                                                                      ",
"                                                                      "
};
