/* XPM */
static char *y1680496827[] = {
/* columns rows colors chars-per-pixel */
"70 70 49 1 ",
"  c None",
". c #FFFFFF",
"X c #FFFFFF",
"o c #FFFFFF",
"O c #FFFFFF",
"+ c #FFFFFF",
"@ c #FFFFFF",
"# c #FFFFFF",
"$ c #FFFFFF",
"% c #FFFFFF",
"& c #FFFFFF",
"* c #FFFFFF",
"= c #FFFFFF",
"- c #FFFFFF",
"; c #FFFFFF",
": c #FFFFFF",
"> c #FFFFFF",
", c #FFFFFF",
"< c #FFFFFF",
"1 c #FFFFFF",
"2 c #FFFFFF",
"3 c #FFFFFF",
"4 c #FFFFFF",
"5 c #FFFFFF",
"6 c #FFFFFF",
"7 c #FFFFFF",
"8 c #FFFFFF",
"9 c #FFFFFF",
"0 c #FFFFFF",
"q c #FFFFFF",
"w c #FFFFFF",
"e c #FFFFFF",
"r c #FFFFFF",
"t c #FFFFFF",
"y c #FFFFFF",
"u c #FFFFFF",
"i c #FFFFFF",
"p c #FFFFFF",
"a c #FFFFFF",
"s c #FFFFFF",
"d c #FFFFFF",
"f c #FFFFFF",
"g c #FFFFFF",
"h c #FFFFFF",
"j c #FFFFFF",
"k c #FFFFFF",
"l c #FFFFFF",
"z c #FFFFFF",
"x c #FFFFFF",
/* pixels */
"                                                                      ",
"                                                                      ",
"                                                                      ",
"                                                                      ",
"                                                                      ",
"                                                                      ",
"                                                                      ",
"                                                                      ",
"                                                                      ",
"                                                                      ",
"                                                                      ",
"            x<<<<<h<fhhz                      lhf<rfrf<<u             ",
"             u<<<<<<<<<<                     h<*<<<<<<<<<             ",
"             <<<$$**$<<$<                    <o*<oo,$o$<              ",
"              <+$$$$$$$$<f                  f<<$$$o$$*<<              ",
"               <$$$$$$o,<u                  <<<$$$$$$<<               ",
"               <<*$$$$$$*<<                <*$$$$$$$<<<               ",
"                <*$o$$$$$$<               h<o$$$$$$$<<                ",
"                <<<*$$$$o$,<              <*$$$$$o$o<                 ",
"                 **+$$$$o,o<u            u*+$$$$$***<                 ",
"                  <<$$$$$$$$<            <*+$$$$$$<,                  ",
"                  <<o$$$$$$+<u          u<o*$$$$$$<u                  ",
"                   <$$$$$$$$+<          <$$$$$$$$<*                   ",
"                   <<$$$$$$<<<<        <<$$$$$$$o<                    ",
"                    ,<o$$$$$$$<<      f<*o$$$$$ou<                    ",
"                     <o$$$$$$$*$      <,$$$$$$$<<                     ",
"                     <<*$$$$$$+*<    u<<$$$$$$*<<                     ",
"                      *<$$$$$$*+<    <+*$$$$$$*+                      ",
"                      ,<*o$$$$$$<<  <<+*$$$$<<<                       ",
"                       **$$$$$$$<< f<<*+$$$$+<<                       ",
"                        <+*$$$$$<o,<$$o$o$,<o$                        ",
"                        <<+$$$$$o,$$$$$$o,o<<<                        ",
"                         ,$$$$$$o,$$$$$$$$$<*                         ",
"                         ,<$$$$$oo$$$$$$$$+*                          ",
"                          <<$$$$$$$$$$$$+$<<                          ",
"                           *+$$$$$$$$$$$<<<                           ",
"                           $<$$$$$$$$$$$,<                            ",
"                            o*$$$$$$$$$$<<                            ",
"                            $u$+$$$$$o$$<                             ",
"                             $<*$$$$$**<u                             ",
"                              <<$$$$$$$<                              ",
"                              <+$$$$$$$<                              ",
"                              <*$$$$o$<u                              ",
"                              <*$$$$o,<<                              ",
"                              <+$$$$$$o<                              ",
"                              <+$$$$$$<u                              ",
"                              <*$$$$$$$u                              ",
"                              <+$$$$$$$<                              ",
"                              <*$$$$oo<u                              ",
"                              <*$$$$$,+u                              ",
"                              <o$$$$$$<<                              ",
"                              <+$$$$$$<<                              ",
"                              <*$$$$$$$<                              ",
"                              <o$$$$$$$<                              ",
"                              <+$$$$$$,<                              ",
"                              u<$$$$oo,<                              ",
"                              <o$$$$$$$<                              ",
"                              <,$$oo$$<<                              ",
"                              <<,,,,,,$h                              ",
"                                                                      ",
"                                                                      ",
"                                                                      ",
"                                                                      ",
"                                                                      ",
"                                                                      ",
"                                                                      ",
"                                                                      ",
"                                                                      ",
"                                                                      ",
"                                                                      "
};
