/* XPM */
static char *z1680496827[] = {
/* columns rows colors chars-per-pixel */
"70 70 58 1 ",
"  c None",
". c #FFFFFF",
"X c #FFFFFF",
"o c #FFFFFF",
"O c #FFFFFF",
"+ c #FFFFFF",
"@ c #FFFFFF",
"# c #FFFFFF",
"$ c #FFFFFF",
"% c #FFFFFF",
"& c #FFFFFF",
"* c #FFFFFF",
"= c #FFFFFF",
"- c #FFFFFF",
"; c #FFFFFF",
": c #FFFFFF",
"> c #FFFFFF",
", c #FFFFFF",
"< c #FFFFFF",
"1 c #FFFFFF",
"2 c #FFFFFF",
"3 c #FFFFFF",
"4 c #FFFFFF",
"5 c #FFFFFF",
"6 c #FFFFFF",
"7 c #FFFFFF",
"8 c #FFFFFF",
"9 c #FFFFFF",
"0 c #FFFFFF",
"q c #FFFFFF",
"w c #FFFFFF",
"e c #FFFFFF",
"r c #FFFFFF",
"t c #FFFFFF",
"y c #FFFFFF",
"u c #FFFFFF",
"i c #FFFFFF",
"p c #FFFFFF",
"a c #FFFFFF",
"s c #FFFFFF",
"d c #FFFFFF",
"f c #FFFFFF",
"g c #FFFFFF",
"h c #FFFFFF",
"j c #FFFFFF",
"k c #FFFFFF",
"l c #FFFFFF",
"z c #FFFFFF",
"x c #FFFFFF",
"c c #FFFFFF",
"v c #FFFFFF",
"b c #FFFFFF",
"n c #FFFFFF",
"m c #FFFFFF",
"M c #FFFFFF",
"N c #FFFFFF",
"B c #FFFFFF",
"V c #FFFFFF",
/* pixels */
"                                                                      ",
"                                                                      ",
"                                                                      ",
"                                                                      ",
"                                                                      ",
"                                                                      ",
"                                                                      ",
"                                                                      ",
"                                                                      ",
"                                                                      ",
"                                                                      ",
"                 vM5vvvvmvmvvvvvvvvvvvvvvavvpvppkva4vv                ",
"                 4%4$4$4%%%%4%%%%%%%%4$44444$4$4444.44                ",
"                 4%$$$$$%%%%..$$%%$$$$$$+.....4....4.4                ",
"                 44$$$$$$$$$.4.4%$$$$$$$..4444..$$+$=4                ",
"                 5$$$$$$$$$$.4..%%$$$$$$4......4$$$$:4                ",
"                 44.$$$$.-.4...-$$$$$$$$$$$$$$$$$$$$.4                ",
"                 4$$$$$$-.-..4-.$$$$$$$$$$$$$$$$$$$$+4                ",
"                 4$-------------$--44$--%$$$$$$$$$$$.4                ",
"                 ---------$$.-.-$$$$$$$4%$$$$$$$$$$$.4                ",
"                                        4$$$$$$$$$$.4                 ",
"                                       44$$$$$$$$$$4V                 ",
"                                      g%%$$$$$$$$$4M                  ",
"                                     N5$$$$$$$$$4$p                   ",
"                                     4$$$$$$$$$%45                    ",
"                                    4$$$$$$$$$$+4                     ",
"                                   4%$$$$$$$$$.4                      ",
"                                  5-%$$$$$$$$$4V                      ",
"                                 5%$$$$$$$$.%4v                       ",
"                                M5%$$$$$$$$44p                        ",
"                                4%$$$$$$$$%.4                         ",
"                               4.4$$$$$$$$$4                          ",
"                              4$.%$$$$$$..4                           ",
"                             5%%$$$$$$$$-4                            ",
"                            k4$$$$$$..$$4M                            ",
"                           M%%$$$$$$44.4p                             ",
"                           4.%$$$$$$.$%4                              ",
"                          4$$$$$$$$$.44                               ",
"                         4$$$$$$$$$$.4                                ",
"                        4%%$$$$$$$$%4                                 ",
"                       p4$$$$$$$$.4-p                                 ",
"                      v5$$$$$$$$$-44                                  ",
"                      4%$$$$$$$$%-4                                   ",
"                     4$$$$$$$$$$$4                                    ",
"                    4$$$$$$$$$$$4                                     ",
"                   5%%$$$$$$$$%4                                      ",
"                  p4-$$$$$$$$$4v                                      ",
"                 M4$$$$$$$$$$44                                       ",
"                 4%$$$$$$$$%--                                        ",
"                4.$$$$$$$$$$4                                         ",
"               4.%$$$$$$$$$$5vp5pvpvva5vva5vpvpvpapv5vN               ",
"               4$$$$$$$$$$$$%44444444455444444554444444               ",
"               4+$$$$$$$$$$$$%%%%%%%%%%%+$%%%%%%%%%%$$-               ",
"               4.$$$$$$$$$$$$$$$.%$$$$$$.4$$$$$$$%$$$%4               ",
"               4.$$$$$$$$$$$$$$$$$$$$$$$$$$$$$$$$$$$$%%               ",
"               4$$$$$$$$$$$$$$$$$$$$$$$$$$$$$$$$$$$$$%%               ",
"               4$$$$$$$$$$$$$$$$$$$$$$$$$$$$$$$$$$$$$%4               ",
"               4$-$$$$$$$$$$$$$$$$$$$$$$$$$$$$$$$$$$$--               ",
"               55-$4-4-4------------------------4$----5               ",
"                                                                      ",
"                                                                      ",
"                                                                      ",
"                                                                      ",
"                                                                      ",
"                                                                      ",
"                                                                      ",
"                                                                      ",
"                                                                      ",
"                                                                      ",
"                                                                      "
};
